<svg width="67" height="67" viewBox="0 0 67 67" fill="none" xmlns="http://www.w3.org/2000/svg">
<path d="M66.4768 0.225952H0.414062V66.2887H66.4768V0.225952Z" fill="url(#paint0_radial_10390_83870)"/>
<path d="M33.4478 59.4511C47.9142 59.4511 59.6416 47.7237 59.6416 33.2572C59.6416 18.7907 47.9142 7.06335 33.4478 7.06335C18.9813 7.06335 7.25391 18.7907 7.25391 33.2572C7.25391 47.7237 18.9813 59.4511 33.4478 59.4511Z" fill="url(#paint1_linear_10390_83870)"/>
<path style="mix-blend-mode:multiply" opacity="0.5" d="M61.8361 42.4727C61.8361 41.4487 63.2763 39.6069 63.2763 39.6069L62.3673 35.9219C62.3276 35.9431 46.577 20.705 46.577 20.705C42.9171 22.5971 39.8993 23.1546 37.8567 22.3817C37.4181 22.2143 37.0188 21.9584 36.6834 21.6299C35.7321 20.705 33.7106 17.9965 33.7106 17.9965C33.7106 17.9965 29.834 25.5276 20.9288 20.9257L20.0039 24.6107C20.0039 24.6107 21.4375 26.4538 21.4375 27.4778C21.4375 28.5017 21.3001 29.5574 21.2908 30.5867C21.2489 32.605 21.4185 34.6221 21.7968 36.605C22.258 38.9317 23.0838 41.1726 24.4129 43.1465C24.8599 43.8041 25.3843 44.4056 25.9747 44.9381L41.6672 59.7692C42.9594 61.0033 44.5264 61.9281 46.0762 62.8596C46.4488 63.0829 46.8267 63.297 47.2138 63.4925C48.0379 63.9064 48.8345 64.3729 49.5987 64.8891C49.5987 64.8891 50.6477 64.2641 52.0311 63.4568C53.0723 62.8491 53.9905 62.3483 54.9246 61.7234C56.09 60.9451 57.2699 60.1643 58.1776 59.0808C59.0473 58.0242 59.7553 56.8442 60.2784 55.5795C60.5539 54.9292 60.7929 54.264 60.9945 53.5871C61.5737 51.5809 61.9008 49.5104 61.9683 47.4234C62.0198 46.0074 61.9907 44.5896 61.8811 43.1769C61.8639 42.9444 61.8361 42.7079 61.8361 42.4727Z" fill="url(#paint2_linear_10390_83870)"/>
<path d="M47.4014 24.6108L46.4937 20.9258C37.5885 25.533 33.7238 18.2133 33.7238 18.2133C33.7238 18.2133 29.834 25.533 20.9288 20.9258L20.0039 24.6108C20.0039 24.6108 21.4375 26.4539 21.4375 27.4779C21.4375 28.5019 21.3001 29.5575 21.2908 30.5868C21.2489 32.6051 21.4185 34.6222 21.7968 36.6051C22.258 38.9318 23.0838 41.1727 24.4129 43.1466C25.8267 45.2474 27.9724 46.5198 30.0943 47.7988C30.4788 48.03 30.8673 48.2599 31.2689 48.4594C32.1185 48.8824 32.939 49.3613 33.7251 49.893C33.7251 49.893 34.7742 49.2667 36.1576 48.4594C37.1987 47.8516 38.117 47.3509 39.0524 46.7259C40.2164 45.949 41.3976 45.1668 42.3054 44.0834C43.1742 43.0259 43.8817 41.8455 44.4048 40.5808C44.6807 39.9309 44.9202 39.2661 45.1223 38.5896C45.7015 36.5835 46.0282 34.513 46.0947 32.426C46.1467 31.0096 46.118 29.5913 46.0088 28.1782C45.9916 27.9443 45.9639 27.7078 45.9639 27.4726C45.9626 26.4539 47.4014 24.6108 47.4014 24.6108Z" fill="#35977F"/>
<path d="M47.4014 24.6108L46.4937 20.9258C37.5885 25.533 33.7238 18.2133 33.7238 18.2133C33.7238 18.2133 29.834 25.533 20.9288 20.9258L20.0039 24.6108C20.0039 24.6108 21.4375 26.4539 21.4375 27.4779C21.4375 28.5019 21.3001 29.5575 21.2908 30.5868C21.2489 32.6051 21.4185 34.6222 21.7968 36.6051C22.258 38.9318 23.0838 41.1727 24.4129 43.1466C25.8267 45.2474 27.9724 46.5198 30.0943 47.7988C30.4788 48.03 30.8673 48.2599 31.2689 48.4594C32.1185 48.8824 32.939 49.3613 33.7251 49.893C33.7251 49.893 34.7742 49.2667 36.1576 48.4594C37.1987 47.8516 38.117 47.3509 39.0524 46.7259C40.2164 45.949 41.3976 45.1668 42.3054 44.0834C43.1742 43.0259 43.8817 41.8455 44.4048 40.5808C44.6807 39.9309 44.9202 39.2661 45.1223 38.5896C45.7015 36.5835 46.0282 34.513 46.0947 32.426C46.1467 31.0096 46.118 29.5913 46.0088 28.1782C45.9916 27.9443 45.9639 27.7078 45.9639 27.4726C45.9626 26.4539 47.4014 24.6108 47.4014 24.6108Z" stroke="white" stroke-width="0.396376" stroke-miterlimit="10"/>
<path d="M33.7197 20.219C34.9484 21.6486 37.2871 23.5856 40.9469 23.5856C42.5755 23.5668 44.1845 23.2278 45.6823 22.588L46.113 24.3413C45.5594 25.1275 44.772 26.4302 44.772 27.4714C44.772 27.6934 44.7891 27.9008 44.805 28.0845C44.805 28.1452 44.8156 28.2073 44.8195 28.2681C44.9266 29.6364 44.9548 31.0097 44.9041 32.3812C44.84 34.3691 44.5293 36.3414 43.9792 38.2528C43.7899 38.887 43.5659 39.5103 43.308 40.1198C42.8301 41.2759 42.1841 42.3551 41.3909 43.3225C40.6047 44.2579 39.5517 44.9608 38.4379 45.7007L38.3877 45.7338C37.7085 46.187 37.0202 46.5833 36.2908 47.0035L36.2565 47.0233C36.0275 47.1546 35.7936 47.2898 35.5549 47.4289C34.8176 47.8583 34.1702 48.2402 33.7514 48.4859C33.2691 48.1847 32.594 47.7883 31.7959 47.3893C31.4326 47.2083 31.0719 46.9929 30.7032 46.7723L30.6094 46.7155C28.5655 45.4867 26.6351 44.3253 25.3892 42.4742C24.2384 40.7645 23.4179 38.7087 22.9528 36.3661C22.5952 34.4671 22.4363 32.536 22.4784 30.6041C22.485 30.1483 22.5181 29.6885 22.5538 29.2022C22.5934 28.6433 22.6343 28.066 22.6343 27.478C22.6343 26.4435 21.8522 25.1433 21.3025 24.3585L21.7385 22.5999C23.3809 23.2804 24.9743 23.612 26.4818 23.612C30.1259 23.612 32.4843 21.6658 33.7263 20.219M33.7263 18.4076L32.8239 19.4567C31.6506 20.8215 29.5987 22.448 26.4818 22.448C25.1328 22.448 23.69 22.1335 22.1931 21.5139L20.9194 20.9854L20.5851 22.3238L20.1478 24.0692L20.0156 24.5977L20.3261 25.0429C21.0264 26.0431 21.4439 26.9535 21.4439 27.4806C21.4439 28.0078 21.4043 28.5812 21.3659 29.119C21.329 29.625 21.2959 30.1007 21.288 30.5896C21.2465 32.6078 21.4161 34.6249 21.794 36.6079C22.2895 39.1064 23.1695 41.3076 24.4088 43.1494C25.8027 45.2198 27.8441 46.4459 30.003 47.7447L30.0981 47.8028C30.4866 48.0354 30.8697 48.2626 31.2714 48.4635C32.0641 48.8599 32.7155 49.247 33.1277 49.5046L33.7408 49.8878L34.3631 49.5205C34.7714 49.2787 35.4201 48.8995 36.16 48.4635L36.8524 48.0671L36.8894 48.0446C37.6372 47.6152 38.3427 47.2096 39.0549 46.7326L39.1038 46.7009C40.2929 45.9082 41.412 45.159 42.3078 44.0941C43.1767 43.0363 43.8846 41.856 44.4086 40.5914C44.6842 39.9411 44.9233 39.2759 45.1247 38.599C45.7032 36.5927 46.0299 34.5223 46.0972 32.4353C46.1495 31.0189 46.1208 29.6007 46.0113 28.1875C46.0113 28.1254 46.002 28.0554 45.9968 27.9999V27.9906C45.9822 27.8215 45.9677 27.6484 45.9677 27.4767C45.9677 26.9482 46.3879 26.0325 47.0921 25.0324L47.4026 24.5897L47.2705 24.0612L46.8397 22.3093L46.5081 20.9695L45.2304 21.498C43.876 22.0791 42.4206 22.3889 40.9469 22.4097C37.8103 22.4097 35.7769 20.807 34.6221 19.4633L33.721 18.4142L33.7263 18.4076Z" fill="#FCFCFC"/>
<path d="M37.0155 32.5964V30.7995C37.0209 30.0029 36.7395 29.2309 36.2228 28.6247C35.9157 28.26 35.5326 27.9667 35.1004 27.7654C34.6681 27.5641 34.1971 27.4597 33.7203 27.4594C33.2833 27.4602 32.8507 27.5474 32.4475 27.7159C32.0443 27.8844 31.6783 28.131 31.3707 28.4413C31.063 28.7517 30.8197 29.1198 30.6547 29.5245C30.4897 29.9292 30.4063 30.3625 30.4093 30.7995V32.5964H29.4844V39.7312H37.9404V32.5964H37.0155ZM34.3003 36.2034V37.7889H33.1839V36.2034C33.0678 36.1136 32.9741 35.9982 32.9099 35.8662C32.8457 35.7342 32.8129 35.5891 32.8139 35.4424C32.8167 35.1938 32.9175 34.9563 33.0944 34.7817C33.2713 34.607 33.51 34.5092 33.7586 34.5096H33.7692C33.8913 34.5096 34.0122 34.5337 34.125 34.5807C34.2377 34.6277 34.34 34.6965 34.426 34.7832C34.512 34.87 34.58 34.9729 34.626 35.086C34.672 35.1991 34.6951 35.3202 34.6941 35.4424C34.6906 35.5908 34.6534 35.7365 34.5852 35.8684C34.5169 36.0003 34.4195 36.1148 34.3003 36.2034ZM35.43 32.5964H31.8626V30.6277C31.8626 29.5707 32.588 28.7066 33.6463 28.7066C34.7046 28.7066 35.43 29.5694 35.43 30.6277V32.5964Z" fill="#FCFCFC"/>
<defs>
<radialGradient id="paint0_radial_10390_83870" cx="0" cy="0" r="1" gradientUnits="userSpaceOnUse" gradientTransform="translate(33.4454 33.2573) scale(75.1807)">
<stop stop-color="white" stop-opacity="0"/>
<stop offset="0.65" stop-color="#AFAFAF" stop-opacity="0.11"/>
<stop offset="1" stop-color="#1D1E1C" stop-opacity="0.3"/>
</radialGradient>
<linearGradient id="paint1_linear_10390_83870" x1="31.5414" y1="26.4152" x2="46.9583" y2="82.1291" gradientUnits="userSpaceOnUse">
<stop stop-color="#FCB148"/>
<stop offset="0.0520724" stop-color="#FDBA46"/>
<stop offset="0.1424" stop-color="#FFC244"/>
<stop offset="0.3183" stop-color="#FFC444"/>
<stop offset="0.4849" stop-color="#FDB946"/>
<stop offset="0.7754" stop-color="#F99C4D"/>
<stop offset="0.8658" stop-color="#F8924F"/>
<stop offset="1" stop-color="#F8924F"/>
</linearGradient>
<linearGradient id="paint2_linear_10390_83870" x1="30.1181" y1="26.6441" x2="60.9958" y2="56.9536" gradientUnits="userSpaceOnUse">
<stop stop-color="#221E1F"/>
<stop offset="1" stop-color="white"/>
</linearGradient>
</defs>
</svg>
