<svg width="386" height="415" viewBox="0 0 386 415" fill="none" xmlns="http://www.w3.org/2000/svg">
<path d="M265.356 246.497L193.595 216.308L137.613 254.069L167.338 266.576C166.712 267.073 166.041 267.51 165.334 267.883C164.158 268.38 162.927 268.738 161.667 268.949C159.167 269.412 156.099 269.334 154.317 270.537C151.535 272.416 153.726 275.827 159.206 278.272L159.693 278.483C165.536 280.935 172.58 281.361 175.445 279.426C177.773 277.855 175.983 275.36 177.371 273.536C178.082 272.871 178.859 272.28 179.691 271.773L209.379 284.266L232.542 268.638C232.447 268.591 232.347 268.545 232.245 268.501C231.251 268.069 230.232 267.696 229.195 267.384C225.74 266.624 221.07 267.545 218.085 266.288C214.433 264.662 215.164 260.969 219.675 257.93C224.225 254.86 230.891 253.623 234.565 255.169C236.844 256.185 236.757 257.784 237.64 259.096C238.179 259.883 238.879 260.547 239.693 261.044C239.802 261.112 240.216 261.319 240.74 261.553C241.178 261.75 241.694 261.962 242.176 262.125L265.356 246.497Z" fill="#9EABD3"/>
<path d="M189.187 352.511C187.378 351.294 184.257 351.367 181.718 350.899C180.436 350.684 179.184 350.318 177.988 349.811C177.269 349.434 176.588 348.991 175.952 348.487L206.164 335.773L182.623 319.889C182.718 319.843 182.82 319.794 182.928 319.751C183.936 319.31 184.97 318.93 186.024 318.614C189.533 317.842 194.28 318.779 197.438 317.45C201.032 315.848 200.274 312.094 195.697 309.006C191.071 305.885 184.296 304.624 180.452 306.248C178.26 307.222 178.336 308.858 177.44 310.19C176.892 310.994 176.18 311.674 175.351 312.184C175.241 312.252 174.815 312.466 174.28 312.705C173.834 312.904 173.306 313.116 172.831 313.282L149.261 297.381L76.3125 328.07L133.215 366.464L163.404 353.767C164.249 354.283 165.038 354.883 165.761 355.559C167.171 357.414 165.352 359.942 167.709 361.546C170.63 363.511 177.791 363.08 183.719 360.587L184.206 360.372C189.788 357.889 192.019 354.422 189.187 352.511Z" fill="#9EABD3"/>
<path d="M245.605 280.921L275.78 268.224C276.626 268.737 277.417 269.337 278.14 270.013C279.552 271.871 277.73 274.396 280.087 276.003C283.009 277.967 290.167 277.536 296.097 275.043L296.584 274.831C302.155 272.346 304.39 268.876 301.556 266.965C299.747 265.748 296.626 265.823 294.084 265.353C292.803 265.138 291.552 264.774 290.357 264.268C289.639 263.889 288.958 263.444 288.321 262.941L318.533 250.229L375.445 288.616L302.505 319.317L278.965 303.431C279.057 303.385 279.157 303.341 279.257 303.297C280.269 302.857 281.307 302.477 282.364 302.158C285.874 301.386 290.624 302.323 293.658 301.045C297.373 299.39 296.616 295.638 292.041 292.551C287.415 289.43 280.64 288.168 276.908 289.744C274.59 290.776 274.68 292.4 273.784 293.732C273.236 294.537 272.524 295.217 271.695 295.728C271.583 295.794 271.159 296.008 270.621 296.247C270.178 296.446 269.648 296.66 269.175 296.824L245.605 280.921Z" fill="#9EABD3"/>
<path d="M342.804 364.304L313.114 351.812C312.283 352.318 311.506 352.908 310.796 353.572C309.408 355.401 311.197 357.894 308.87 359.464C306.002 361.397 298.951 360.976 293.118 358.52L292.631 358.31C287.151 355.876 284.957 352.467 287.74 350.575C289.522 349.373 292.592 349.45 295.09 348.988C296.351 348.777 297.582 348.419 298.759 347.919C299.465 347.546 300.135 347.11 300.76 346.614L271.038 334.107L247.851 349.755C247.364 349.592 246.855 349.377 246.417 349.183C245.893 348.939 245.479 348.742 245.372 348.674C244.555 348.173 243.855 347.504 243.317 346.712C242.434 345.399 242.521 343.802 240.354 342.836C236.569 341.241 229.905 342.478 225.352 345.548C220.853 348.586 220.108 352.28 223.648 353.855C226.755 355.165 231.424 354.239 234.877 355.001C235.913 355.312 236.93 355.685 237.922 356.117L238.222 356.255L215.059 371.881L286.822 402.07L342.804 364.304Z" fill="#9EABD3"/>
<path d="M142.987 240.79C142.987 250.862 124.635 259.028 101.997 259.028C79.3601 259.028 61.0078 250.862 61.0078 240.79C61.0078 230.718 79.3601 222.552 101.997 222.552C124.635 222.552 142.987 230.718 142.987 240.79Z" fill="#9EABD3"/>
<path d="M113.027 239.568L113.699 239.444L114.373 233.798L112.605 231.709L113.027 239.568Z" fill="#561136"/>
<path d="M112.218 239.11L113.026 239.568L112.899 230.329L111.473 230.005L112.218 239.11Z" fill="#152035"/>
<path d="M118.433 227.483L119.932 232.435C119.932 232.435 121.975 237.207 123.657 239.091C123.657 239.091 126.696 243.254 121.011 242.986C121.011 242.986 114.949 242.665 115.039 238.774C115.119 235.429 112.044 231.278 112.044 231.278C110.914 229.331 112.059 227.733 112.441 227.285L113.493 226.085L118.591 225.194L118.433 227.483Z" fill="#886962"/>
<path d="M123.984 240.625C122.804 240.833 121.592 240.761 120.445 240.414C119.298 240.068 118.248 239.456 117.382 238.628C115.804 237.075 114.007 231.393 114.604 233.272C114.847 234.054 112.997 227.147 113.491 226.068L112.439 227.268C112.057 227.716 110.808 229.408 111.94 231.366C111.94 231.366 115.117 235.412 115.037 238.757C114.947 242.653 121.009 242.969 121.009 242.969C124.418 243.137 124.69 241.703 124.359 240.535C124.236 240.573 124.111 240.603 123.984 240.625Z" fill="#152035"/>
<path d="M126.842 242.288C126.842 242.288 127.697 243.907 124.982 243.907C124.982 243.907 114.808 243.259 114.813 238.889V235.368C114.813 235.368 115.614 240.393 121.895 240.406C121.895 240.406 124.685 240.406 123.244 238.628L126.842 242.288Z" fill="#152035"/>
<path d="M110.467 6.77072C110.467 8.10985 110.07 9.4189 109.326 10.5323C108.582 11.6458 107.525 12.5136 106.288 13.0261C105.05 13.5385 103.689 13.6726 102.376 13.4113C101.062 13.1501 99.8558 12.5053 98.9089 11.5583C97.962 10.6114 97.3171 9.40502 97.0559 8.09163C96.7946 6.77824 96.9287 5.41687 97.4412 4.17968C97.9536 2.94249 98.8215 1.88505 99.9349 1.14108C101.048 0.397099 102.357 0 103.697 0C105.492 0 107.214 0.713344 108.484 1.9831C109.754 3.25286 110.467 4.97502 110.467 6.77072Z" fill="#1A2652"/>
<path d="M108.552 37.9731H121.884C121.278 36.0254 120.024 31.0052 121.967 27.5845L108.496 18.7395C108.496 18.7395 110.889 33.5835 108.552 37.9731Z" fill="#886962"/>
<path d="M110.045 29.5955C110.843 31.6358 112.136 32.6315 114.244 33.2962C116.426 34.0142 118.751 34.1864 121.015 33.7977C120.803 31.7526 120.915 29.4349 121.967 27.5845L108.496 18.7395C108.496 18.7395 109.226 23.2679 109.485 28.0593C109.667 28.5706 109.845 29.0843 110.045 29.5955Z" fill="#886962"/>
<path d="M124.53 30.6739L125.238 28.6678L126.965 22.7687C127.208 21.8313 127.315 20.5507 126.994 19.6377C126.474 18.0572 126.38 16.3677 126.721 14.7392C127.817 9.38305 125.436 6.56862 125.436 6.56862C122.302 1.63118 114.906 1.65552 114.906 1.65552C105.764 2.13027 105.016 10.9826 105.016 10.9826C103.556 16.8744 108.245 21.7632 108.254 21.7729C108.849 22.3913 108.912 23.3944 109.199 24.1613C109.51 24.9809 109.964 25.7386 110.541 26.3987C111.858 27.9302 113.447 29.2054 115.227 30.1602C116.861 30.9929 120.028 31.8474 122.288 31.8231C123.22 31.8134 124.123 31.8255 124.53 30.6739Z" fill="#886962"/>
<path d="M81.8477 240.63L82.5269 240.727L84.9737 235.595L83.9731 233.048L81.8477 240.63Z" fill="#561136"/>
<path d="M81.2305 239.933L81.8489 240.63L84.695 231.836L83.446 231.071L81.2305 239.933Z" fill="#152035"/>
<path d="M90.8375 230.915C90.7036 235.054 90.3969 239.68 92.0548 243.576C92.0548 243.576 93.596 248.494 88.3006 246.407C88.3006 246.407 82.662 244.157 83.9962 240.503C85.1453 237.36 83.5653 232.442 83.5653 232.442C83.1222 230.226 84.7144 229.089 85.2208 228.79L86.6037 227.989H91.9039L90.8375 230.915Z" fill="#886962"/>
<path d="M91.8895 245.146C90.7052 244.965 89.58 244.509 88.6047 243.813C87.6295 243.117 86.8315 242.202 86.2752 241.141C85.2794 239.166 85.3987 233.206 85.3598 235.186C85.3427 236.004 85.8029 228.856 86.6185 228.004L85.238 228.797C84.7316 229.099 83.0079 230.3 83.451 232.517C83.451 232.517 85.1552 237.37 84.0134 240.513C82.6792 244.165 88.3179 246.417 88.3179 246.417C91.4975 247.671 92.2133 246.397 92.2741 245.18C92.1453 245.177 92.0168 245.165 91.8895 245.146Z" fill="#152035"/>
<path d="M94.0613 247.637C94.0613 247.637 94.3535 249.443 91.7801 248.571C91.7801 248.571 82.3532 244.696 83.7604 240.559L84.8852 237.221C84.8852 237.221 84.0307 242.237 89.976 244.265C89.976 244.265 92.6176 245.161 91.8239 243.013L94.0613 247.637Z" fill="#152035"/>
<path d="M96.7001 169.227C89.9391 181.709 88.7413 186.793 87.541 196.285C86.8374 201.807 87.0711 225.065 86.348 228.534C86.0461 229.973 91.5119 229.184 91.5119 229.184C92.5101 226.75 108.428 173.312 108.428 173.312C108.428 173.312 110.207 167.776 108.732 166.814C101.306 161.979 99.646 163.783 96.7001 169.227Z" fill="#886962"/>
<path d="M91.6767 230.299C92.6773 227.865 108.429 173.312 108.429 173.312C108.429 173.312 110.209 167.776 108.734 166.814C101.311 161.979 99.6477 163.783 96.7018 169.227C89.9408 181.709 88.743 186.793 87.5427 196.285C86.8391 201.807 85.6996 224.262 84.9766 227.733C84.9766 227.733 89.0205 232.552 91.6767 230.299Z" fill="#1F2732"/>
<path d="M127.052 78.9383C127.052 78.9383 132.248 100.93 131.552 103.341C129.543 110.262 110.901 119.972 93.9023 105.812C93.9023 105.812 97.7978 89.546 105.856 75.7879C105.856 75.7781 108.822 78.8409 127.052 78.9383Z" fill="#1F2732"/>
<path d="M124.405 34.2504C124.405 34.2504 131.205 47.3974 134.241 54.6088C132.96 63.0643 128.376 75.6051 126.53 78.2637C122.491 84.0484 103.988 78.8724 103.988 78.8724L98.6562 61.0728C114.218 55.4853 106.023 39.0856 106.023 39.0856L108.458 37.5445C108.458 37.5445 110.946 45.6055 121.077 45.3183C121.077 45.3183 124.405 43.1514 121.956 33.9558C122.779 33.9829 123.599 34.0815 124.405 34.2504Z" fill="#6652A2"/>
<path d="M107.473 109.254C107.473 109.254 109.262 144.732 115.826 163.815C116.8 166.658 128.021 162.877 128.021 162.877C128.021 162.877 133.686 132.352 133.341 119.704C133.148 112.556 130.592 97.1421 130.592 97.1421C130.592 97.1421 109.557 94.3934 107.473 109.254Z" fill="#886962"/>
<path d="M116.16 163.685L128.034 162.877C128.034 162.877 120.73 223.444 120.078 225.988C120.078 225.988 114.965 227.836 115.077 226.368C115.32 222.833 111.067 195.652 110.938 190.092C110.719 181.149 111.07 175.501 116.16 163.685Z" fill="#886962"/>
<path d="M107.473 109.254C107.473 109.254 109.262 144.732 115.826 163.815C116.8 166.658 128.021 162.877 128.021 162.877C128.021 162.877 133.686 132.352 133.341 119.704C133.148 112.556 130.592 97.1421 130.592 97.1421C130.592 97.1421 109.557 94.3934 107.473 109.254Z" fill="#171F29"/>
<path d="M121.539 226.368C122.744 224.03 128.025 162.877 128.025 162.877L116.161 163.685C111.08 175.501 110.729 181.149 110.939 190.087C111.068 195.652 113.763 222.833 113.515 226.363C113.505 226.368 119.957 229.44 121.539 226.368Z" fill="#171F29"/>
<path d="M145.881 77.319L136.873 44.6949C133.632 35.9667 128.8 35.7524 128.8 35.7524C119.531 37.1548 125.464 53.4182 125.464 53.4182L136.907 80.5205" fill="#886962"/>
<path d="M171.966 101.697C168.07 98.8094 167.805 98.0254 167.216 96.8519C164.679 91.8147 171.15 92.9176 172.73 93.5311C173.636 93.8841 173.366 96.1215 175.871 99.2744C175.871 99.2744 180.051 102.607 181.205 102.583C181.205 102.583 182.354 102.924 182.23 103.771C182.23 103.771 178.731 105.193 171.966 101.697Z" fill="#886962"/>
<path d="M145.182 75.4222L171.54 95.3619C172.27 98.9968 170.602 99.2573 170.602 99.2573L149.341 89.5845C140.24 85.6428 137.07 81.1095 137.07 81.1095C137.07 81.1095 133.352 77.6256 139.273 74.1319C139.273 74.1246 141.966 72.5835 145.182 75.4222Z" fill="#886962"/>
<path d="M171.978 93.3048C171.978 93.3048 170.826 95.5349 173.838 95.3913L177.025 93.6335C177.025 93.6335 177.999 93.2878 177.797 92.3918C177.797 92.3918 177.527 91.8562 176.54 92.2019L171.978 93.3048Z" fill="#886962"/>
<path d="M92.957 112.22C92.957 112.22 93.0934 147.712 97.7752 167.342C98.4715 170.264 109.164 169.37 109.164 169.37C109.164 169.37 116.142 135.804 117.031 123.185C117.535 116.052 118.961 103.57 118.961 103.57C118.961 103.57 93.9285 101.086 92.957 112.22Z" fill="#886962"/>
<path d="M98.144 43.3535C92.6855 47.3414 95.4659 53.3355 95.4659 53.3355L105.772 78.3611C105.772 78.3611 122.49 84.0485 126.529 78.2638C128.375 75.6173 130.084 68.6031 132.326 58.4848C133.853 51.6094 133.955 39.5969 130.084 36.0399C127.854 33.9875 120.628 34.0289 120.574 33.7854L108.869 37.5566L98.144 43.3535Z" fill="#886962"/>
<path d="M120.198 76.3162C121.187 76.136 126.528 78.2469 126.528 78.2469C126.528 78.2469 130.375 94.6466 130.594 97.1372C130.813 99.6278 113.664 112.536 94.5078 105.189C94.5078 105.189 104.181 82.3736 105.595 77.6041C107.221 72.1311 120.198 76.3162 120.198 76.3162Z" fill="#886962"/>
<path d="M129.499 44.3931C129.499 44.3931 135.15 51.0518 135.637 55.9965C135.9 58.7525 132.423 63.3613 130.685 65.0607C129.441 66.2658 122.139 48.9897 129.499 44.3931Z" fill="#6652A2"/>
<path d="M99.1994 99.7592C99.1994 99.7592 92.4458 101.259 93.0544 113.637C93.6485 125.729 115.662 128.244 118.489 116.071C121.53 102.951 111.219 95.2649 99.1994 99.7592Z" fill="#1F2732"/>
<path d="M109.277 25.1888C109.229 21.0134 109.336 21.269 109.336 21.269C109.433 20.0517 111.826 22.6811 111.77 21.0913C111.544 13.8166 114.186 10.3521 115.22 9.79217C118.027 8.27296 120.988 7.84447 123.335 8.25349C127.014 8.9084 126.875 13.8045 126.875 13.8045C130.008 -4.1242 110.013 1.6045 110.013 1.6045C100.274 4.1633 101.277 13.3394 101.277 13.3394C100.084 23.1924 109.421 28.887 109.421 28.887L109.277 25.1888Z" fill="#2B3B6F"/>
<path d="M109.92 23.767C109.553 24.0383 109.104 24.1742 108.649 24.1517C107.234 24.1322 106.056 22.8054 106.024 21.1961C105.992 19.5868 107.11 18.2964 108.524 18.3159C108.856 18.3258 109.182 18.4018 109.483 18.5393C109.784 18.6769 110.055 18.8732 110.28 19.1169C110.959 19.8278 110.981 21.1401 110.818 22.0385C110.691 22.7664 110.406 23.3872 109.92 23.767Z" fill="#886962"/>
<path d="M109.098 19.8157C109.015 18.9708 107.303 19.7767 107.561 20.2539C107.747 20.5169 107.98 20.7431 108.248 20.921C108.399 21.0272 108.524 21.1655 108.615 21.3258C108.706 21.4862 108.76 21.6647 108.774 21.8486C108.774 21.8948 108.788 22.0409 108.74 22.075C108.518 22.2308 107.793 21.4055 107.632 21.2302C107.487 21.0401 107.392 20.8163 107.356 20.5796C107.32 20.343 107.345 20.1011 107.427 19.8765C107.478 19.6741 107.602 19.4975 107.775 19.3807C107.948 19.2639 108.158 19.215 108.365 19.2435C108.75 19.2654 109.141 19.2922 109.12 19.7694C109.12 19.7694 109.103 19.8595 109.098 19.8157Z" fill="#886962"/>
<path d="M108.543 20.6946C108.721 20.5169 108.891 20.6654 109.074 20.7944C109.234 20.917 109.343 21.0949 109.38 21.2935C109.486 21.7745 109.409 22.2775 109.166 22.7056C109.068 22.8589 108.932 22.9844 108.771 23.0697C108.61 23.155 108.43 23.1973 108.248 23.1925C107.732 23.1779 107.579 22.7251 107.559 22.2868C107.559 22.1724 107.545 21.8973 107.659 21.8243C107.773 21.7512 107.871 21.9362 107.951 22.019C108.075 22.1208 108.229 22.179 108.389 22.1846C108.535 22.1912 108.68 22.1635 108.813 22.1039C108.945 22.0443 109.062 21.9543 109.154 21.8413C109.188 21.8026 109.215 21.7581 109.234 21.7098C109.234 21.9947 109.217 22.0555 109.188 21.8997C109.165 21.8288 109.133 21.7615 109.091 21.7001C108.971 21.5029 108.769 21.3665 108.638 21.1791C108.572 21.0914 108.453 20.7847 108.543 20.6921V20.6946Z" fill="#886962"/>
<path d="M118.028 17.5366C118.076 18.043 117.838 18.4812 117.495 18.5104C117.151 18.5396 116.832 18.1598 116.784 17.6534C116.735 17.147 116.974 16.7088 117.317 16.6796C117.66 16.6503 117.979 17.0301 118.028 17.5366Z" fill="#3C2415"/>
<path d="M125.062 16.5895C125.082 17.0983 124.819 17.5195 124.471 17.5317C124.123 17.5439 123.833 17.1446 123.814 16.6357C123.794 16.1269 124.057 15.7033 124.405 15.6935C124.753 15.6838 125.043 16.0806 125.062 16.5895Z" fill="#3C2415"/>
<path d="M114.996 16.8548C116.318 15.4647 119.427 15.5766 119.427 15.5766C119.427 15.5766 119.634 15.5766 119.578 14.9315C119.578 14.9315 119.563 14.3715 119.116 14.4251C119.116 14.4251 115.159 14.1646 114.996 16.8548Z" fill="#2B3B6F"/>
<path d="M126.846 14.1987C125.465 13.0788 122.928 13.9552 122.928 13.9552C122.48 14.0185 122.612 14.5639 122.612 14.5639C122.724 15.1896 122.928 15.1458 122.928 15.1458C122.928 15.1458 125.027 14.4981 126.67 14.8804C126.731 14.6515 126.792 14.4251 126.846 14.1987Z" fill="#2B3B6F"/>
<path d="M124.175 23.9714L119.164 24.899C118.902 24.9477 118.797 25.1035 118.938 25.2447C118.938 25.2447 120.379 26.686 122.003 26.3817C123.627 26.0773 124.44 24.2148 124.44 24.2148C124.511 24.0395 124.389 23.947 124.175 23.9714Z" fill="white"/>
<path d="M120.574 22.3839C123.199 22.194 123.342 21.5074 123.342 21.5074L121.967 18.7393C121.967 18.7393 122.283 21.5074 120.574 22.3839Z" fill="#886962"/>
<path d="M92.957 112.22C92.957 112.22 93.0934 147.712 97.7752 167.342C98.4715 170.264 109.164 169.37 109.164 169.37C109.164 169.37 116.142 135.804 117.031 123.185C117.535 116.052 118.961 103.57 118.961 103.57C118.961 103.57 93.9285 101.086 92.957 112.22Z" fill="#1F2732"/>
<path d="M127.052 78.9383C127.052 78.9383 132.248 100.93 131.552 103.341C129.543 110.262 110.901 119.972 93.9023 105.812C93.9023 105.812 97.7978 89.546 105.856 75.7879C105.856 75.7781 108.822 78.8409 127.052 78.9383Z" fill="#1F2732"/>
<path d="M103.989 78.8724C103.989 78.8724 123.01 84.735 127.057 78.9381C128.905 76.2917 132.973 63.0643 134.244 54.6088C131.208 47.3974 124.408 34.2504 124.408 34.2504C123.606 34.0824 122.792 33.9838 121.973 33.9558C124.423 43.1514 121.094 45.3183 121.094 45.3183C110.964 45.6055 108.476 37.5445 108.476 37.5445L106.041 39.0856C106.041 39.0856 113.588 54.7573 99.0219 61.9249C99.0049 61.9249 98.6568 78.7507 103.989 78.8724Z" fill="#6652A2"/>
<path d="M109.983 24.0616C109.983 24.2329 109.932 24.4002 109.836 24.5424C109.741 24.6846 109.605 24.7953 109.447 24.8606C109.288 24.9258 109.114 24.9426 108.946 24.9089C108.778 24.8752 108.624 24.7924 108.503 24.6711C108.382 24.5498 108.3 24.3954 108.266 24.2273C108.233 24.0593 108.251 23.8851 108.316 23.7269C108.382 23.5686 108.493 23.4334 108.635 23.3383C108.778 23.2432 108.945 23.1924 109.117 23.1924C109.231 23.1921 109.344 23.2143 109.449 23.2579C109.555 23.3015 109.651 23.3656 109.731 23.4464C109.812 23.5272 109.876 23.6232 109.919 23.7287C109.962 23.8343 109.984 23.9474 109.983 24.0616Z" fill="white"/>
<path d="M106.308 45.6397C107.012 46.3874 107.562 47.2665 107.926 48.2269C108.29 49.1872 108.462 50.2099 108.43 51.2364C108.399 52.263 108.165 53.2733 107.743 54.2095C107.321 55.1458 106.718 55.9897 105.97 56.6929C102.824 59.6534 92.9373 65.2969 92.8448 60.9779C92.6622 52.4907 92.9957 47.8795 96.1413 44.9214C99.2868 41.9634 103.35 42.4917 106.308 45.6397Z" fill="#886962"/>
<path d="M106.667 52.8147L99.8359 48.8755L92.9604 53.1726C92.9604 53.1726 88.9409 78.7826 90.4211 84.6427C91.9988 90.89 94.8668 86.2885 96.2253 84.5794C96.2253 84.5794 107.434 57.7911 106.667 52.8147Z" fill="#886962"/>
<path d="M91.457 87.1429C91.457 87.1429 103.747 95.9076 114.652 100.692C114.652 100.692 118.257 99.1798 116.453 97.5266C113.396 94.6976 100.017 81.8865 96.9301 79.0551C91.457 77.1731 91.457 87.1429 91.457 87.1429Z" fill="#886962"/>
<path d="M120.877 105.593C116.429 103.669 115.986 102.966 115.146 101.96C111.525 97.6365 118.067 97.2299 119.755 97.466C120.728 97.6024 120.972 99.8447 124.137 102.335C124.137 102.335 128.967 104.621 130.085 104.337C130.085 104.337 131.28 104.405 131.353 105.257C131.343 105.262 128.268 107.446 120.877 105.593Z" fill="#886962"/>
<path d="M119.547 97.4124C119.547 97.4124 117.641 99.0509 120.487 100.047L124.102 99.6108C124.102 99.6108 125.122 99.6522 125.28 98.749C125.28 98.749 125.232 98.15 124.187 98.1013L119.547 97.4124Z" fill="#886962"/>
<path d="M196.538 129.274L196.377 129.24C196.297 129.221 196.214 129.201 196.134 129.187L195.954 129.155C195.895 129.155 195.839 129.133 195.781 129.126L195.657 143.113L172.496 158.738L172.642 142.051L191.83 129.106C191.547 129.138 191.265 129.179 190.977 129.226L190.792 129.257L190.466 129.316L190.245 129.359L189.926 129.428L189.726 129.471L189.222 129.591L189.088 129.625C188.881 129.678 188.674 129.737 188.467 129.798L188.358 129.829C188.073 129.915 187.788 130.005 187.503 130.102L187.474 130.114C187.187 130.212 186.904 130.316 186.622 130.426L186.561 130.448C186.242 130.574 185.926 130.708 185.614 130.849L185.57 130.869C185.254 131.01 184.942 131.161 184.635 131.319L184.606 131.336C184.294 131.495 183.99 131.665 183.693 131.84H183.676C183.374 132.018 183.077 132.206 182.792 132.398C180.236 134.124 178.897 136.05 178.875 137.71C178.924 132.146 178.973 126.583 179.023 121.021C179.023 119.37 180.382 117.435 182.938 115.708C183.226 115.514 183.52 115.329 183.822 115.148H183.839C184.139 114.971 184.44 114.803 184.752 114.642L184.784 114.627C185.088 114.469 185.4 114.318 185.714 114.175L185.762 114.155C186.072 114.014 186.386 113.882 186.705 113.756H186.724L186.778 113.736C187.053 113.629 187.333 113.527 187.613 113.43L187.652 113.415C187.934 113.32 188.214 113.232 188.497 113.147L188.572 113.123H188.618C188.825 113.062 189.03 113.006 189.234 112.952L189.373 112.918C189.539 112.877 189.704 112.836 189.86 112.799L189.96 112.775L190.072 112.753L190.376 112.687L190.62 112.641L190.929 112.585L191.092 112.556H191.131C191.416 112.509 191.698 112.47 191.98 112.436H192.054H192.107C192.354 112.407 192.597 112.385 192.837 112.371H192.901H192.981C193.21 112.356 193.434 112.346 193.658 112.341H193.677C193.887 112.341 194.094 112.341 194.301 112.341H194.383H194.454C194.661 112.341 194.866 112.358 195.065 112.375H195.085H195.131C195.338 112.392 195.542 112.414 195.742 112.444C195.765 112.442 195.787 112.442 195.81 112.444H195.856L196.1 112.485C196.163 112.485 196.226 112.504 196.29 112.519C196.353 112.534 196.443 112.548 196.519 112.568C196.594 112.587 196.626 112.587 196.677 112.602H196.696C196.877 112.646 197.049 112.694 197.22 112.748L197.337 112.787C197.51 112.843 197.675 112.904 197.824 112.969C197.972 113.035 198.067 113.086 198.186 113.147L198.286 113.203C198.325 113.228 198.369 113.249 198.408 113.271L198.503 113.335L198.625 113.413C198.688 113.456 198.749 113.5 198.805 113.544C198.861 113.588 198.875 113.595 198.907 113.622L198.941 113.649C199.012 113.705 199.075 113.766 199.136 113.824L199.163 113.848C199.211 113.895 199.258 113.943 199.301 113.992L199.343 114.038L199.406 114.111C199.45 114.162 199.491 114.216 199.53 114.27L199.586 114.343L199.613 114.382C199.633 114.408 199.65 114.438 199.667 114.464C199.684 114.491 199.735 114.567 199.766 114.62C199.798 114.674 199.813 114.698 199.835 114.737L199.922 114.895C199.93 114.912 199.939 114.928 199.949 114.944L199.973 114.998C200.02 115.092 200.066 115.185 200.107 115.28L200.129 115.326C200.185 115.453 200.241 115.582 200.295 115.711L200.404 115.954L200.455 116.066C200.504 116.175 200.555 116.285 200.609 116.395L200.696 116.556L200.745 116.646C200.794 116.729 200.843 116.811 200.899 116.889C200.955 116.967 200.972 116.994 201.008 117.045C201.045 117.096 201.115 117.191 201.174 117.262L201.247 117.357C201.325 117.454 201.407 117.549 201.49 117.644L201.505 117.661C201.595 117.758 201.692 117.856 201.79 117.951C201.819 117.98 201.85 118.007 201.88 118.031C201.953 118.102 202.026 118.167 202.104 118.233L202.218 118.328C202.296 118.394 202.376 118.455 202.462 118.518L202.571 118.598C202.693 118.684 202.815 118.769 202.949 118.842L202.973 118.854L203.012 118.876L203.036 118.888L203.092 118.92L203.131 118.939L203.199 118.973L203.246 118.998L203.323 119.034L203.387 119.066L203.47 119.107L203.567 119.153L203.628 119.183L203.745 119.236L203.808 119.265L203.995 119.351C204.434 119.545 204.95 119.76 205.432 119.92L228.614 104.275L228.468 120.965L205.286 136.61C204.799 136.449 204.288 136.237 203.849 136.04L203.659 135.955L203.628 135.94L203.482 135.872C203.463 135.865 203.445 135.856 203.428 135.845L203.321 135.797L203.255 135.765L203.175 135.726L203.124 135.702L203.048 135.663L203.009 135.643L202.944 135.609L202.914 135.592L202.861 135.565L202.841 135.553C202.83 135.548 202.82 135.541 202.81 135.534C202.678 135.453 202.554 135.368 202.435 135.29L202.318 135.205C202.238 135.144 202.157 135.083 202.074 135.02L202.014 134.971L201.958 134.923C201.882 134.859 201.809 134.794 201.738 134.728L201.646 134.64C201.546 134.545 201.451 134.448 201.364 134.353L201.344 134.331C201.259 134.238 201.179 134.143 201.101 134.051L201.028 133.956C200.969 133.883 200.913 133.81 200.86 133.734C200.847 133.717 200.833 133.7 200.821 133.681L200.752 133.581C200.696 133.501 200.648 133.42 200.599 133.338C200.577 133.301 200.558 133.262 200.536 133.223C200.514 133.184 200.487 133.138 200.468 133.097C200.409 132.987 200.358 132.875 200.307 132.763C200.295 132.731 200.28 132.702 200.268 132.671L200.137 132.371C200.088 132.259 200.039 132.142 199.988 132.028L199.959 131.964C199.917 131.874 199.876 131.787 199.832 131.697C199.813 131.663 199.796 131.624 199.776 131.59C199.757 131.555 199.72 131.485 199.691 131.434C199.662 131.383 199.647 131.353 199.623 131.314C199.598 131.275 199.557 131.21 199.523 131.159L199.443 131.039L199.387 130.964C199.345 130.91 199.306 130.859 199.262 130.808L199.197 130.733C199.141 130.669 199.08 130.606 199.019 130.543L198.992 130.518C198.922 130.45 198.844 130.384 198.763 130.316L198.661 130.241C198.605 130.195 198.544 130.153 198.481 130.109L198.359 130.029C198.291 129.985 198.218 129.941 198.143 129.9L198.04 129.844C197.928 129.783 197.797 129.722 197.68 129.666C197.563 129.61 197.354 129.54 197.193 129.481L197.074 129.442C196.894 129.367 196.718 129.318 196.538 129.274Z" fill="#0093C6"/>
<path d="M100.73 128.544L100.877 111.852L130.601 124.359L130.479 138.251H130.508L130.701 138.273C130.944 138.299 131.176 138.324 131.407 138.343H131.477C131.65 138.358 131.818 138.368 131.989 138.377H132.179L132.561 138.394H132.714C133.011 138.394 133.306 138.407 133.596 138.394H133.688C133.932 138.394 134.175 138.38 134.399 138.365H134.453C134.669 138.351 134.881 138.331 135.088 138.309L135.246 138.29C135.422 138.27 135.597 138.246 135.767 138.219H135.831C136.016 138.188 136.193 138.153 136.369 138.114L136.503 138.083C136.665 138.047 136.827 138.006 136.989 137.959L137.058 137.942L137.153 137.91L137.396 137.83L137.52 137.783C137.591 137.757 137.661 137.732 137.73 137.703L137.844 137.654L138.041 137.567L138.148 137.516L138.343 137.413L138.431 137.365C138.521 137.311 138.609 137.257 138.691 137.201C139.806 136.449 139.974 135.483 140.004 134.482V133.669C140.004 132.843 140.067 132.028 140.61 131.312C141.321 130.646 142.098 130.056 142.93 129.549L172.642 142.051L172.496 158.741L142.808 146.251C141.976 146.756 141.199 147.346 140.488 148.011C140.001 148.656 139.904 149.38 139.884 150.117V150.928C139.884 152.019 139.78 153.085 138.567 153.903C138.484 153.959 138.399 154.013 138.309 154.064L138.219 154.112L138.027 154.215L137.917 154.268L137.722 154.356L137.608 154.405L137.545 154.431L137.396 154.483L137.274 154.529L137.031 154.609L136.926 154.643H136.909H136.865C136.71 154.689 136.544 154.731 136.378 154.77L136.308 154.789H136.249C136.072 154.826 135.891 154.862 135.706 154.894H135.694C135.681 154.893 135.668 154.893 135.655 154.894C135.48 154.921 135.3 154.945 135.117 154.967H135.042H134.969C134.759 154.991 134.548 155.008 134.331 155.023H134.272C134.029 155.038 133.803 155.047 133.562 155.052H133.488H133.445C133.157 155.052 132.863 155.052 132.563 155.052H132.42C132.296 155.052 132.176 155.052 132.042 155.035C131.977 155.035 131.913 155.035 131.85 155.035C131.67 155.035 131.487 155.013 131.305 154.996H131.253C131.01 154.977 130.781 154.952 130.543 154.928L130.355 154.906C130.146 154.879 129.934 154.853 129.72 154.821H129.642H129.615L129.023 154.728L128.921 154.709L128.422 154.619L128.2 154.573C128.074 154.548 127.957 154.524 127.821 154.495L127.577 154.439L127.219 154.358L127.124 154.336L127.044 154.317C126.723 154.239 126.399 154.154 126.07 154.073L125.944 154.039C125.617 153.944 125.291 153.847 124.97 153.742L124.87 153.711C124.536 153.599 124.205 153.487 123.874 153.365C123.855 153.356 123.836 153.349 123.816 153.343C123.475 153.214 123.134 153.08 122.8 152.939C122.635 152.871 122.474 152.798 122.314 152.73C122.086 152.631 121.867 152.528 121.656 152.423L121.439 152.316C121.298 152.245 121.162 152.177 121.028 152.106L120.785 151.98L120.422 151.78L120.2 151.651L120.066 151.571C119.991 151.527 119.92 151.481 119.847 151.434C119.774 151.388 119.718 151.356 119.655 151.315C119.526 151.232 119.411 151.147 119.273 151.072L119.151 150.989C118.99 150.874 118.834 150.762 118.686 150.648L118.593 150.572L118.333 150.363L118.287 150.324C118.179 150.232 118.077 150.142 117.977 150.049L117.841 149.925C117.702 149.791 117.568 149.66 117.447 149.526C117.34 149.409 117.24 149.282 117.147 149.175C117.116 149.136 117.091 149.1 117.062 149.063C117.033 149.026 116.96 148.934 116.916 148.871L116.882 148.817L116.819 148.72C116.765 148.639 116.714 148.557 116.668 148.476C116.651 148.44 116.629 148.408 116.612 148.374L116.58 148.316C116.536 148.23 116.497 148.145 116.461 148.058C116.454 148.044 116.448 148.03 116.444 148.016C116.419 147.955 116.395 147.897 116.375 147.838C116.356 147.78 116.351 147.763 116.341 147.724L116.324 147.668C116.301 147.588 116.281 147.507 116.266 147.425V147.373V147.32C116.253 147.225 116.247 147.129 116.246 147.033V147.003C116.28 143.043 116.315 139.083 116.351 135.122L100.73 128.544Z" fill="#3DAFE4"/>
<path d="M228.622 104.275L156.861 74.0859L100.879 111.862L130.603 124.368C129.978 124.867 129.307 125.304 128.6 125.676C127.42 126.17 126.187 126.525 124.926 126.732C122.425 127.195 119.358 127.12 117.576 128.32C114.79 130.199 116.984 133.613 122.464 136.055C122.623 136.128 122.786 136.196 122.951 136.267C128.794 138.721 135.838 139.144 138.703 137.209C141.031 135.638 139.239 133.145 140.629 131.319C141.34 130.654 142.118 130.063 142.949 129.557L172.645 142.051L195.805 126.423L195.508 126.287C194.515 125.854 193.497 125.481 192.46 125.169C189.005 124.412 184.336 125.333 181.351 124.076C177.699 122.448 178.429 118.754 182.941 115.718C187.491 112.648 194.157 111.411 197.831 112.955C200.11 113.97 200.022 115.57 200.906 116.882C201.443 117.674 202.143 118.343 202.958 118.844C203.068 118.91 203.482 119.117 204.005 119.353C204.443 119.548 204.96 119.762 205.442 119.923L228.622 104.275Z" fill="#80BBE6"/>
<path d="M162.968 172.224C162.968 172.265 162.968 172.304 162.968 172.348C162.968 172.392 162.968 172.435 162.968 172.479C162.968 172.523 162.968 172.55 162.956 172.586L162.941 172.713C162.941 172.754 162.924 172.796 162.917 172.837C162.91 172.879 162.917 172.898 162.897 172.93C162.878 172.961 162.876 173.015 162.863 173.054C162.851 173.093 162.846 173.112 162.837 173.144C162.832 173.161 162.825 173.177 162.817 173.193C162.779 173.31 162.731 173.424 162.676 173.533C162.621 173.641 162.558 173.744 162.488 173.843C162.479 173.86 162.468 173.877 162.457 173.894C162.381 173.993 162.299 174.088 162.213 174.179C162.191 174.205 162.167 174.23 162.143 174.254C162.118 174.278 162.089 174.313 162.062 174.337L161.965 174.427L161.875 174.507C161.848 174.532 161.819 174.554 161.79 174.575L161.627 174.702L161.537 174.763C161.476 174.804 161.415 174.846 161.349 174.885L161.264 174.938C161.21 174.972 161.152 175.002 161.091 175.033L160.994 175.089C160.901 175.133 160.806 175.182 160.706 175.226C160.317 175.387 159.916 175.516 159.506 175.613C159.172 175.693 158.829 175.759 158.474 175.81C158.118 175.861 157.792 175.895 157.441 175.924C156.955 175.963 156.456 175.988 155.947 176C154.841 176.034 153.704 176.022 152.601 176.051C152.114 176.068 151.628 176.09 151.141 176.126L151.289 193.093C151.776 193.054 152.263 193.029 152.75 193.018C153.853 192.986 154.987 192.996 156.095 192.964C156.599 192.964 157.098 192.928 157.588 192.889C157.941 192.86 158.284 192.821 158.62 192.774C158.956 192.728 159.319 192.658 159.652 192.577C160.062 192.481 160.463 192.351 160.852 192.19C160.952 192.146 161.05 192.1 161.142 192.051L161.222 192.007C161.288 191.973 161.351 191.937 161.415 191.9H161.434L161.488 191.864C161.556 191.825 161.622 191.781 161.685 191.74L161.773 191.676L161.936 191.552C161.953 191.538 161.97 191.528 161.984 191.513L162.023 191.482L162.111 191.401L162.208 191.311L162.289 191.231L162.34 191.177L162.359 191.153C162.447 191.063 162.528 190.967 162.603 190.866L162.618 190.849L162.637 190.817C162.705 190.717 162.768 190.613 162.824 190.505C162.88 190.393 162.928 190.278 162.968 190.16C162.969 190.151 162.969 190.142 162.968 190.133C162.969 190.126 162.969 190.12 162.968 190.113C162.98 190.081 162.99 190.047 162.997 190.014C163.009 189.977 163.019 189.94 163.029 189.902C163.039 189.863 163.044 189.833 163.048 189.799C163.053 189.765 163.063 189.743 163.068 189.716C163.073 189.69 163.068 189.695 163.068 189.685C163.068 189.675 163.068 189.595 163.085 189.549C163.102 189.502 163.085 189.483 163.085 189.451V189.298C163.085 189.273 163.085 189.249 163.085 189.227V189.193L162.968 172.224Z" fill="#D4088C"/>
<path d="M149.288 176.397H149.268C148.221 176.714 147.194 177.092 146.191 177.529C146.084 177.575 145.982 177.621 145.887 177.67L146.035 194.632C146.133 194.586 146.232 194.54 146.34 194.493C147.343 194.058 148.37 193.68 149.417 193.361H149.434C149.702 193.303 149.977 193.254 150.254 193.213C150.59 193.167 150.931 193.128 151.279 193.101L151.131 176.136C150.783 176.165 150.439 176.202 150.106 176.251C149.826 176.29 149.553 176.341 149.288 176.397Z" fill="#D4088C"/>
<path d="M169.577 210.523L169.426 193.556L139.217 206.269L139.341 220.39C135.832 220.811 132.68 220.483 130.978 219.334C129.846 218.569 129.675 217.593 129.646 216.575V215.735C129.646 214.9 129.58 214.072 129.03 213.347C128.306 212.673 127.517 212.072 126.673 211.555L96.4961 224.252L96.6446 241.219L126.822 228.519C127.667 229.035 128.456 229.635 129.179 230.311C129.666 230.961 129.77 231.692 129.79 232.439V233.279C129.79 234.387 129.899 235.47 131.129 236.298C134.05 238.265 141.208 237.834 147.137 235.339C147.305 235.268 147.47 235.198 147.623 235.125C151.568 233.367 153.837 231.115 153.822 229.282C153.786 225.255 153.751 221.23 153.715 217.208L169.577 210.523Z" fill="#A1426F"/>
<path d="M160.709 175.233L160.858 192.197C157.693 193.527 152.953 192.592 149.442 193.361C148.389 193.679 147.356 194.058 146.347 194.498C146.24 194.544 146.14 194.59 146.043 194.637L145.895 177.675C145.989 177.626 146.092 177.58 146.199 177.533C147.208 177.095 148.242 176.715 149.296 176.396C152.792 175.627 157.544 176.562 160.709 175.233Z" fill="#D4088C"/>
<path d="M96.4882 224.247L39.5859 185.853L39.7345 202.817L96.6368 241.211L96.4882 224.247Z" fill="#D4088C"/>
<path d="M152.451 210.294C150.642 209.077 147.521 209.15 144.981 208.682C143.699 208.468 142.447 208.102 141.251 207.594C140.533 207.217 139.851 206.774 139.216 206.27L169.425 193.556L145.887 177.675C145.982 177.626 146.084 177.58 146.191 177.533C147.201 177.095 148.235 176.715 149.288 176.397C152.794 175.627 157.544 176.562 160.702 175.233C164.295 173.631 163.538 169.877 158.961 166.792C154.335 163.668 147.56 162.41 143.715 164.033C141.512 165.007 141.6 166.641 140.704 167.973C140.157 168.779 139.445 169.459 138.615 169.969C138.505 170.035 138.079 170.249 137.544 170.488C137.1 170.687 136.57 170.902 136.083 171.065L112.515 155.162L39.5859 185.855L96.4882 224.247L126.666 211.55C127.509 212.068 128.298 212.668 129.022 213.342C130.432 215.2 128.613 217.724 130.97 219.329C133.892 221.294 141.052 220.863 146.98 218.37C147.148 218.301 147.311 218.228 147.467 218.158C153.052 215.672 155.282 212.205 152.451 210.294Z" fill="#CC4E7E"/>
<path d="M303.562 275.323C303.562 285.398 321.915 293.561 344.552 293.561C367.189 293.561 385.542 285.398 385.542 275.323C385.542 265.249 367.189 257.085 344.552 257.085C321.915 257.085 303.562 265.244 303.562 275.323Z" fill="#9EABD3"/>
<path d="M330.74 271.233C327.845 274.155 323.073 275.703 323.073 275.708C319.049 276.728 316.68 274.052 316.68 274.052C315.818 272.835 316.867 272.18 316.867 272.18C325.352 265.728 327.891 263.902 327.891 263.902H335.682C336.064 267.036 335.852 268.285 335.852 268.285C334.812 269.663 333.283 270.59 331.58 270.875C331.419 270.902 331.12 270.666 330.969 270.729L330.74 271.233Z" fill="#17181C"/>
<path d="M316.832 272.207C316.864 272.391 316.918 272.57 316.995 272.74C317.654 274.15 319.485 274.734 320.939 274.712C322.682 274.688 324.267 273.836 325.789 273.066C327.225 272.312 328.572 271.398 329.803 270.342C330.682 269.611 331.802 269.273 332.842 268.823C334.01 268.311 334.892 267.518 335.904 266.758C335.904 267.598 335.851 268.294 335.851 268.294C334.81 269.672 333.281 270.599 331.578 270.885C331.417 270.912 331.118 270.675 330.967 270.739L330.741 271.226C327.846 274.147 323.074 275.696 323.074 275.7C319.049 276.721 316.681 274.045 316.681 274.045C315.914 272.979 316.656 272.336 316.832 272.207Z" fill="black"/>
<path d="M336.543 200.726C327.881 210.289 324.448 200.173 324.448 200.173L323.377 141.394C323.262 142.268 322.975 135.465 333.911 136.938C344.848 138.411 347.575 142.657 347.575 142.657C347.575 142.657 341.576 183.257 336.543 200.726Z" fill="#886962"/>
<path d="M324.395 199.438C324.395 199.438 328.777 261.341 329.147 263.513C329.147 263.513 334.503 264.696 334.503 263.464C334.564 260.499 340.665 224.266 340.743 219.614C340.943 207.818 337.902 205.588 334.868 197.641C334.878 197.641 324.373 189.875 324.395 199.438Z" fill="#886962"/>
<path d="M339.15 202.958C344.182 185.49 347.574 142.665 347.574 142.665C347.574 142.665 344.813 138.414 333.91 136.946C323.008 135.478 323.261 142.275 323.376 141.401C323.376 141.401 320.062 173.275 323.096 202.245C323.105 202.245 332.437 207.204 339.15 202.958Z" fill="#104473"/>
<path d="M355.68 109.87C357.226 115.372 363.602 136.361 363.602 136.361C340.773 163.673 323.574 139.77 323.348 137.284C323.075 134.302 326.403 122.92 327 110.634C327.002 110.644 333.233 101.052 355.68 109.87Z" fill="#886962"/>
<path d="M323.478 144.12C322.397 136.763 324.639 129.345 325.793 121.909H359.236C361.376 129.038 363.601 136.361 363.601 136.361C363.601 136.361 365.03 153.223 350.709 155.244C350.709 155.244 325.752 159.58 323.478 144.12Z" fill="#104473"/>
<path d="M361.526 202.021C354.375 212.76 349.481 203.265 349.481 203.265L337.883 146.002C337.902 146.886 338.231 138.545 349.265 138.382C360.299 138.219 363.629 142.012 363.629 142.012C363.629 142.012 363.919 184 361.53 202.021" fill="#886962"/>
<path d="M349.315 202.537C349.315 202.537 360.799 267.771 361.476 269.864C361.476 269.864 366.935 270.242 366.776 269.022C366.397 266.079 367.38 224.955 366.776 220.329C365.226 208.643 363.611 206.622 359.426 199.211C359.419 199.209 347.879 193.083 349.315 202.537Z" fill="#886962"/>
<path d="M360.949 268.603L357.719 278.456C357.719 278.456 358.386 287.275 365.458 281.809L367.564 279.769C367.874 279.509 368.107 279.171 368.241 278.791C368.374 278.41 368.403 278 368.324 277.604L367.696 273.828L366.946 268.603C366.946 268.603 362.515 265.597 360.949 268.603Z" fill="#17181C"/>
<path d="M365.466 280.55L367.572 278.51C367.928 278.22 368.183 277.826 368.303 277.383L368.339 277.604C368.418 278 368.39 278.41 368.256 278.79C368.122 279.171 367.889 279.509 367.58 279.769L365.466 281.799C358.406 287.265 357.727 278.447 357.727 278.447L357.851 278.062C358.243 280.153 359.801 284.923 365.466 280.55Z" fill="black"/>
<path d="M348.062 204.845C344.033 193.023 336.43 144.12 336.43 144.12C336.447 145.002 338.706 132.434 349.74 132.278C360.774 132.123 363.6 136.361 363.6 136.361C363.6 136.361 367.045 184.224 364.657 202.245C364.657 202.245 356.907 211.195 348.062 204.845Z" fill="#065099"/>
<path d="M328.707 72.2525C328.707 72.2525 310.026 94.2226 300.738 101.5C300.738 101.5 294.496 99.1941 294.688 94.9506C294.688 94.9506 308.363 74.7188 316.95 62.7501C316.945 62.7501 328.556 59.4073 328.707 72.2525Z" fill="#886962"/>
<path d="M297.385 93.1149C297.385 93.1149 276.985 104.989 268.539 108.96C268.539 108.96 267.022 111.333 269.469 111.557C273.557 111.932 301.981 102.306 302.675 100.071C305.913 89.6528 297.385 93.1149 297.385 93.1149Z" fill="#886962"/>
<path d="M316.02 69.8008C316.72 71.6847 318.137 73.2154 319.961 74.0591C321.785 74.9028 323.869 74.9911 325.758 74.3048C326.687 73.9598 327.538 73.4345 328.263 72.7591C328.987 72.0838 329.571 71.2717 329.981 70.3697C330.391 69.4677 330.618 68.4935 330.649 67.5034C330.681 66.5132 330.516 65.5266 330.165 64.6004C329.465 62.7161 328.048 61.185 326.224 60.3412C324.399 59.4974 322.315 59.4094 320.426 60.0963C319.498 60.4413 318.646 60.9667 317.922 61.642C317.197 62.3174 316.613 63.1295 316.203 64.0315C315.794 64.9335 315.567 65.9076 315.535 66.8978C315.504 67.8879 315.668 68.8745 316.02 69.8008Z" fill="#886962"/>
<path d="M325.347 59.6775C325.347 59.6775 318.689 57.3427 314.111 63.8773L297.816 87.5152C297.816 87.5152 301.176 95.0406 309.106 99.1479C309.106 99.1454 338.278 72.2792 325.347 59.6775Z" fill="url(#paint0_linear_10471_83768)"/>
<path d="M344.224 51.7407C344.224 51.7407 345.57 49.1552 348.536 44.1934C348.536 44.1934 354.849 37.7099 351.314 29.5612C351.314 29.5612 349.366 22.7442 337.456 23.7376C337.456 23.7278 336.314 42.4891 344.224 51.7407Z" fill="#886962"/>
<path d="M344.696 41.1233C344.696 41.1233 342.692 59.814 346.967 61.2285L331.722 60.3204C331.722 60.3204 334.117 54.672 331.332 50.5064L344.696 41.1233Z" fill="#886962"/>
<path d="M332.561 57.0555C332.817 52.7852 332.279 51.9185 331.344 50.5064L344.707 41.1233C344.707 41.1233 344.062 47.1612 344.286 52.6342C340.408 56.2959 337.211 57.1578 332.561 57.0555Z" fill="#886962"/>
<path d="M320.972 59.6412C317.578 62.1196 317.186 68.0504 318.401 71.7559C319.791 76.0117 320.349 81.4409 321.737 87.5932C323.623 95.9318 324.902 102.354 327.008 110.635C328.751 117.483 356.269 111.966 356.269 111.966L366.132 78.2637C366.132 78.2637 367.836 69.4625 359.86 66.5361C359.86 66.5361 351.463 62.0028 345.316 59.9187C339.887 58.0806 337.922 57.9101 332.349 58.251C332.359 58.2486 324.882 58.5237 320.972 59.6412Z" fill="#886962"/>
<path d="M325.875 25.1519C325.088 28.7381 324.197 30.6103 325.188 33.8995C326.079 36.8503 325.872 39.952 327.16 42.8151C329.001 46.8956 331.392 46.3624 333.223 42.6082C335.095 38.7639 337.047 33.5733 332.818 30.7247C330.104 28.8963 329.125 25.7532 325.875 25.1519Z" fill="#271000"/>
<path d="M328.217 53.1697L327.584 51.0565C327.584 51.0565 325.98 43.2437 325.98 43.2413C325.796 42.1618 325.838 41.0558 326.104 39.9935C326.374 38.932 326.591 37.8169 326.381 36.6605C325.407 31.0608 328.468 28.1392 328.468 28.1392C331.962 23.1774 339.623 23.567 339.623 23.567C349.079 24.5116 349.415 33.7243 349.415 33.7243C350.65 39.901 345.539 44.7386 345.52 44.7483C345.111 45.133 345.208 47.1513 345.065 47.7186C344.441 50.1289 342.036 51.5069 339.92 52.4345C337.595 53.4521 334.791 54.5185 332.244 54.6256C331.294 54.6622 328.592 54.3822 328.217 53.1697Z" fill="#886962"/>
<path d="M326.182 43.0976C327.424 44.2175 329.103 43.7062 330.438 44.5194C331.302 45.0477 331.733 45.0063 332.68 44.7385C333.383 44.5404 334.129 44.5651 334.818 44.8091C335.606 45.038 337.038 45.7245 337.802 46.0264C338.974 46.4988 340.286 46.3502 341.194 45.2425C342.146 44.0836 342.506 43.845 342.954 42.4573C343.775 39.9009 346.363 39.7475 348.137 41.1815C347.448 42.4865 346.573 43.6846 345.54 44.7385C345.131 45.1232 345.228 48.8092 345.084 49.3765C344.461 51.7868 342.056 53.1648 339.94 54.0924C337.615 55.1101 334.068 55.2513 331.519 55.356C330.545 55.3974 328.597 54.3821 328.227 53.1648L327.594 51.0515C327.594 51.0515 325.99 43.2388 325.99 43.2363C325.96 43.1 325.951 42.9491 325.934 42.803C326.008 42.9078 326.091 43.0063 326.182 43.0976Z" fill="#271000"/>
<path d="M326.011 28.485C328.153 28.485 328.126 30.2769 329.767 31.2751C333.283 33.4151 338.739 30.2793 341.57 33.7463C341.85 34.0871 342.094 34.4549 342.301 34.8443C343.136 36.4073 343.387 38.2942 343.652 40.0276C343.732 40.5389 343.352 41.8439 343.817 42.2358C344.083 42.4623 344.548 42.3941 345.035 42.2358C345.13 43.0198 344.499 43.6211 344.229 44.3394C343.959 45.0576 343.535 45.676 343.917 46.4064C344.906 48.281 344.161 47.9718 344.236 51.7382C344.847 50.8471 346.352 49.7613 346.827 49.345C348.202 48.1471 349.505 46.8422 350.479 45.2962C351.452 43.7502 352.076 42.0873 352.701 40.4147C353.724 37.6733 354.316 34.7079 353.493 31.8326C353.493 31.8326 352.847 25.152 347.258 24.4338C347.258 24.4338 347.968 20.1318 337.762 18.9924C337.762 18.9924 329.697 19.119 329.241 16.3362C329.241 16.3362 327.61 17.7288 328.024 19.881C328.024 19.881 324.708 20.8914 323.216 17.0958C323.203 17.0982 320.44 27.0948 326.011 28.485Z" fill="#271000"/>
<path d="M344.079 46.3212C344.341 46.6646 344.726 46.8933 345.153 46.9591C346.423 47.2025 347.697 46.0095 347.996 44.315C348.296 42.6205 347.509 41.0624 346.241 40.8311C345.935 40.7846 345.623 40.8081 345.328 40.8996C345.033 40.9911 344.762 41.1483 344.537 41.3594C343.806 41.9851 343.563 43.3631 343.563 44.3467C343.555 45.1331 343.704 45.8367 344.079 46.3212Z" fill="#886962"/>
<path d="M345.456 42.3334C345.653 41.4472 347.364 42.5233 347.031 42.9956C346.8 43.2517 346.523 43.4622 346.215 43.6164C346.042 43.7102 345.892 43.8408 345.776 43.999C345.659 44.1572 345.579 44.3391 345.541 44.5318C345.526 44.583 345.499 44.7363 345.541 44.7753C345.757 44.9676 346.631 44.1837 346.826 44.0181C347.005 43.8354 347.135 43.6102 347.203 43.3636C347.271 43.117 347.276 42.8572 347.216 42.6085C347.188 42.386 347.078 42.1818 346.909 42.0349C346.74 41.888 346.522 41.8088 346.298 41.8123C345.889 41.788 345.47 41.7661 345.434 42.2774C345.434 42.2774 345.434 42.3747 345.451 42.3285L345.456 42.3334Z" fill="#886962"/>
<path d="M345.923 43.3363C345.755 43.1221 345.558 43.2584 345.346 43.3753C345.16 43.4834 345.021 43.6571 344.956 43.8622C344.781 44.3599 344.798 44.9049 345.003 45.3911C345.088 45.5663 345.217 45.7168 345.376 45.8284C345.536 45.94 345.722 46.009 345.916 46.029C346.463 46.0777 346.685 45.6127 346.763 45.1525C346.782 45.0308 346.828 44.7362 346.716 44.6461C346.605 44.5561 346.473 44.7387 346.381 44.8166C346.236 44.9094 346.065 44.9514 345.894 44.9359C345.738 44.9249 345.586 44.8774 345.452 44.797C345.318 44.7166 345.205 44.6057 345.122 44.4733C345.092 44.4277 345.07 44.3775 345.056 44.3248C345.02 44.6267 345.027 44.6973 345.08 44.5341C345.113 44.4606 345.156 44.3925 345.209 44.3321C345.36 44.1373 345.594 44.018 345.757 43.8452C345.835 43.7624 346.001 43.4507 345.92 43.3436L345.923 43.3363Z" fill="#886962"/>
<path d="M330.946 42.6327L333.525 43.626C333.525 43.626 330.048 43.8427 329.914 42.8323C329.914 42.8323 330.44 40.8627 331.01 38.9954C331.01 38.9954 330.564 42.4745 330.946 42.6327Z" fill="#886962"/>
<path d="M335.445 38.9953C335.445 39.5407 335.747 39.9692 336.117 39.9692C336.487 39.9692 336.784 39.531 336.784 38.9953C336.784 38.4597 336.485 38.0215 336.117 38.0215C335.75 38.0215 335.445 38.45 335.445 38.9953Z" fill="#271000"/>
<path d="M328.012 38.1677C328.012 38.7155 328.314 39.1537 328.684 39.1537C329.054 39.1537 329.351 38.7155 329.351 38.1677C329.351 37.6199 329.051 37.1938 328.684 37.1938C328.316 37.1938 328.012 37.6248 328.012 38.1677Z" fill="#271000"/>
<path d="M334.751 37.0844C334.508 37.1331 334.452 36.8093 334.452 36.8093C334.407 36.6187 334.413 36.4198 334.469 36.2322C334.524 36.1026 334.625 35.9984 334.753 35.9401C335.377 35.8549 336.579 36.0083 337.602 36.3126C338.167 36.4806 339.082 36.9018 339.143 37.4228C339.16 37.5786 339.175 37.8464 338.997 37.8951C337.61 37.4936 336.188 37.2222 334.751 37.0844Z" fill="#271000"/>
<path d="M326.299 36.237C327.415 36.2604 328.526 36.376 329.622 36.5827C329.839 36.6971 329.983 36.4025 329.985 36.4025C330.079 36.2309 330.128 36.0382 330.126 35.8426C330.108 35.7028 330.038 35.575 329.929 35.4847C329.144 35.1866 328.306 35.0556 327.468 35.1C327.049 35.1015 326.633 35.158 326.229 35.268C326.229 35.268 326.158 35.4652 326.299 36.237Z" fill="#271000"/>
<path d="M329.508 45.7783C329.298 45.7783 329.184 45.8733 329.264 46.0218C329.264 46.0218 330.192 47.765 331.816 47.9695C333.439 48.174 334.764 46.6962 334.764 46.6962C334.893 46.555 334.781 46.4113 334.52 46.3772C334.518 46.3699 331.716 46.0145 329.508 45.7783Z" fill="white"/>
<path d="M361.291 129.686C361.291 129.686 367.149 139.139 361.291 149.732C355.434 160.326 337.554 156.464 337.5 142.743C337.449 129.187 349.785 124.003 361.291 129.686Z" fill="#065099"/>
<path d="M332.357 58.2485C332.357 58.2485 324.89 58.5236 320.98 59.6411C317.586 62.1196 317.194 68.0504 318.409 71.7559C319.799 76.0116 320.357 81.4409 321.744 87.5932C323.631 95.9318 321.257 102.028 323.356 110.308C325.097 117.157 361.514 110.308 361.514 110.308L366.14 78.2612C366.14 78.2612 367.844 69.46 359.868 66.5336C359.868 66.5336 351.853 62.1318 345.706 60.0502C345.706 60.0502 346.663 66.5336 336.094 64.7417C336.084 64.7417 329.628 63.186 332.357 58.2485Z" fill="url(#paint1_linear_10471_83768)"/>
<path d="M361.502 110.308C363.048 115.811 364.27 134.355 364.27 134.355C360.085 151.719 321.569 139.224 321.34 136.736C321.07 133.754 322.249 119.565 322.852 107.277C322.86 107.287 339.052 101.492 361.502 110.308Z" fill="url(#paint2_linear_10471_83768)"/>
<path d="M350.15 79.0815C352.662 84.1943 361.992 109.989 365.001 114.067C365.8 115.151 373.488 120.105 375.227 113.354C370.99 86.5729 364.58 71.3004 364.58 71.3004C364.58 71.3004 357.093 65.058 351.114 70.8281C351.102 70.8281 348.377 75.5416 350.15 79.0815Z" fill="#886962"/>
<path d="M349.094 74.5117C348.798 76.2686 349.029 78.0738 349.759 79.6992C350.488 81.3245 351.684 82.6971 353.193 83.6432C354.703 84.5893 356.459 85.0665 358.24 85.0144C360.021 84.9623 361.746 84.3834 363.198 83.3507C364.65 82.318 365.763 80.878 366.397 79.2128C367.03 77.5475 367.155 75.7319 366.757 73.9954C366.358 72.2589 365.454 70.6795 364.158 69.457C362.862 68.2346 361.232 67.4239 359.476 67.1275C358.309 66.9307 357.115 66.9656 355.962 67.2301C354.809 67.4947 353.72 67.9838 352.756 68.6695C351.792 69.3552 350.972 70.2241 350.344 71.2265C349.716 72.2289 349.291 73.3452 349.094 74.5117Z" fill="#886962"/>
<path d="M357.974 65.5476C357.974 65.5476 365.716 68.4521 367.55 74.7335L372.329 91.8344C372.329 91.8344 366.067 100.942 356.733 100.638L347.513 80.1579C347.513 80.1579 341.309 68.6542 357.974 65.5476Z" fill="url(#paint3_linear_10471_83768)"/>
<path d="M258.86 114.467L261.243 114.401C261.243 114.401 256.895 115.518 255.493 114.104C255.493 114.104 255.135 113.882 255.693 113.373C255.693 113.373 259.539 113.244 261.229 112.757C261.229 112.757 257.424 113.678 254.714 113.405C254.714 113.405 253.652 112.706 254.797 112.076C253.932 111.74 254.67 111.17 254.67 111.17C255.501 110.759 256.368 110.425 257.26 110.172C259.279 109.504 261.261 108.731 263.198 107.856C263.198 107.856 260.688 106.213 261.628 104.891L265.499 106.931L269.003 109.183L269.47 111.555L265.818 114.089C265.818 114.089 262.276 115.513 260.27 115.582C260.277 115.584 254.521 115.38 258.86 114.467Z" fill="#886962"/>
<path d="M348.062 204.845L358.079 267.267C358.079 267.267 361.397 270.466 369.098 267.267L370.376 236.768C370.376 236.768 372.635 216.617 364.657 202.245C364.657 202.245 348.937 189.558 348.062 204.845Z" fill="#065099"/>
<path d="M339.148 202.958C339.148 202.958 343.414 209.128 339.591 232.281L335.681 263.9C335.681 263.9 331.185 266.595 326.123 264.024L322.973 201.033C322.973 201.033 325.799 190.34 339.148 202.958Z" fill="#104473"/>
<path d="M266.067 126.757C266.067 125.997 265.665 125.308 264.849 124.751C264.716 124.663 264.578 124.581 264.436 124.507L264.297 124.439L263.978 124.296L263.898 124.262L263.825 124.237C263.652 124.169 263.472 124.108 263.286 124.052C263.099 123.999 262.904 123.95 262.707 123.906L262.641 123.889L262.559 123.872C262.315 123.823 262.089 123.777 261.848 123.736H261.828H261.767C261.524 123.697 261.266 123.66 261.01 123.626H260.93C260.659 123.592 260.389 123.563 260.119 123.531C260.104 123.53 260.088 123.53 260.073 123.531L259.415 123.456L258.646 123.366C258.602 123.366 258.554 123.353 258.507 123.346C258.264 123.312 258.02 123.278 257.777 123.239C257.65 123.217 257.533 123.198 257.4 123.173C257.156 123.127 256.888 123.073 256.633 123.02L256.494 122.988C256.309 122.948 256.124 122.904 255.939 122.857H255.924C255.737 122.808 255.554 122.759 255.371 122.706L255.199 122.652C255.072 122.616 254.955 122.577 254.824 122.535L254.644 122.474L254.269 122.338C254.222 122.319 254.174 122.304 254.13 122.285C253.972 122.224 253.818 122.158 253.672 122.092C252.954 121.713 252.273 121.269 251.637 120.765L251.785 137.73C252.421 138.234 253.103 138.678 253.821 139.057C253.967 139.123 254.12 139.186 254.276 139.252H254.31L254.417 139.291L254.794 139.429L254.97 139.488L255.354 139.609L255.462 139.641L255.518 139.656C255.7 139.709 255.888 139.763 256.075 139.809L256.645 139.943H256.698L256.774 139.96C257.032 140.016 257.29 140.07 257.546 140.116L257.862 140.172H257.925C258.169 140.211 258.412 140.245 258.656 140.279L258.804 140.298L259.559 140.389L260.046 140.445C260.114 140.445 260.18 140.462 260.248 140.466L261.069 140.566C261.09 140.568 261.111 140.568 261.132 140.566C261.39 140.6 261.646 140.637 261.899 140.681L261.979 140.693C262.223 140.732 262.466 140.778 262.69 140.827L262.841 140.861C263.038 140.905 263.233 140.953 263.42 141.009C263.608 141.065 263.793 141.129 263.968 141.197L264.122 141.255C264.231 141.299 264.336 141.348 264.44 141.399L264.577 141.465C264.72 141.537 264.86 141.618 264.993 141.708C265.821 142.266 266.21 142.957 266.21 143.714L266.067 126.757Z" fill="#394472"/>
<path d="M241.487 164.116L241.659 164.077L241.903 164.026L242.1 163.992L242.266 163.963L242.392 178.179L265.93 194.065L265.782 177.1L246.283 163.941C246.568 163.975 246.855 164.014 247.142 164.063L247.342 164.097L247.666 164.155L247.909 164.202L248.218 164.265L248.435 164.316C248.603 164.353 248.771 164.394 248.939 164.435L249.078 164.472C249.287 164.525 249.496 164.584 249.706 164.645L249.825 164.679C250.115 164.766 250.402 164.856 250.687 164.954L250.728 164.968C251.016 165.066 251.298 165.171 251.581 165.28L251.649 165.309C251.972 165.433 252.294 165.57 252.61 165.713L252.657 165.733C252.978 165.877 253.292 166.032 253.604 166.193L253.635 166.208C253.952 166.371 254.261 166.544 254.563 166.721C254.563 166.721 254.563 166.721 254.578 166.721C254.887 166.904 255.186 167.091 255.478 167.289C258.079 169.042 259.444 171.011 259.459 172.689C259.41 167.032 259.361 161.377 259.31 155.724C259.296 154.047 257.928 152.072 255.33 150.324C255.038 150.128 254.737 149.939 254.429 149.757H254.414C254.113 149.577 253.801 149.406 253.487 149.243L253.453 149.229C253.144 149.068 252.827 148.914 252.508 148.768L252.459 148.749C252.143 148.605 251.824 148.471 251.5 148.342H251.481L251.432 148.325C251.147 148.213 250.862 148.106 250.573 148.009L250.541 147.997C250.251 147.897 249.961 147.807 249.672 147.722L249.604 147.7H249.56C249.35 147.636 249.139 147.58 248.927 147.524L248.798 147.493L248.282 147.368L248.184 147.344L248.077 147.322L247.753 147.254L247.529 147.21L247.203 147.152L247.047 147.125H247.006C246.714 147.076 246.424 147.037 246.137 147.003H246.069H246.017C245.774 146.977 245.516 146.952 245.27 146.933H245.209H245.126C244.666 146.903 244.218 146.894 243.778 146.906H243.631C243.42 146.906 243.208 146.923 243.003 146.94H242.989H242.952C242.736 146.957 242.526 146.981 242.319 147.011H242.251H242.205C242.12 147.023 242.034 147.037 241.961 147.054L241.781 147.086L241.523 147.14L241.387 147.171H241.367C241.185 147.215 241.004 147.266 240.832 147.32L240.715 147.359C240.539 147.417 240.369 147.478 240.206 147.546C240.043 147.614 239.962 147.668 239.838 147.726L239.736 147.785L239.612 147.853L239.514 147.916L239.39 147.997C239.327 148.04 239.266 148.084 239.208 148.131L239.103 148.208L239.067 148.238C238.998 148.296 238.93 148.355 238.869 148.413L238.847 148.437C238.796 148.486 238.748 148.535 238.701 148.586C238.655 148.637 238.675 148.617 238.662 148.632L238.597 148.708C238.553 148.761 238.509 148.812 238.47 148.868L238.414 148.941L238.385 148.983C238.365 149.009 238.347 149.037 238.331 149.065C238.295 149.119 238.261 149.17 238.229 149.224C238.197 149.277 238.183 149.304 238.158 149.345L238.073 149.499L238.044 149.555C238.034 149.574 238.025 149.593 238.017 149.613C237.971 149.703 237.927 149.796 237.886 149.886C237.886 149.908 237.869 149.927 237.859 149.947L237.698 150.312C237.659 150.404 237.62 150.499 237.579 150.592L237.53 150.699C237.482 150.811 237.428 150.921 237.372 151.03C237.343 151.091 237.311 151.149 237.279 151.205L237.236 151.286C237.187 151.369 237.136 151.454 237.082 151.529L236.973 151.683C236.919 151.756 236.861 151.831 236.802 151.907L236.727 152.002C236.649 152.099 236.566 152.194 236.483 152.291C236.476 152.298 236.47 152.305 236.464 152.313C236.371 152.411 236.274 152.51 236.172 152.608L236.084 152.693L235.855 152.895L235.736 152.992C235.658 153.056 235.575 153.122 235.492 153.182L235.378 153.27C235.254 153.355 235.135 153.44 234.996 153.514L234.952 153.535L234.935 153.548L234.881 153.577L234.852 153.591L234.786 153.623L234.743 153.647L234.674 153.681L234.611 153.711L234.543 153.745L234.463 153.786L234.385 153.82L234.297 153.862L234.175 153.918L234.117 153.947C234.056 153.976 233.99 154.005 233.922 154.032C233.479 154.232 232.948 154.446 232.476 154.609L208.906 138.706L209.055 155.673L232.624 171.576C233.111 171.411 233.628 171.196 234.085 170.999L234.45 170.833L234.604 170.76L234.711 170.709L234.755 170.685L234.835 170.648L234.884 170.622L234.945 170.592L234.993 170.566L235.035 170.546L235.079 170.522L235.105 170.507L235.132 170.493C235.266 170.41 235.393 170.322 235.517 170.249L235.626 170.164C235.712 170.103 235.794 170.04 235.87 169.972L235.931 169.925L235.987 169.877C236.065 169.809 236.14 169.743 236.213 169.675L236.306 169.589C236.405 169.492 236.503 169.395 236.595 169.295L236.615 169.273C236.7 169.178 236.783 169.085 236.858 168.99C236.885 168.956 236.909 168.922 236.936 168.891C236.995 168.818 237.048 168.745 237.102 168.669L237.148 168.611L237.214 168.516C237.27 168.433 237.321 168.35 237.367 168.272C237.387 168.243 237.401 168.211 237.418 168.182C237.435 168.153 237.474 168.08 237.499 168.026C237.555 167.917 237.608 167.805 237.659 167.693C237.674 167.656 237.688 167.622 237.706 167.588C237.744 167.496 237.786 167.403 237.825 167.308L237.986 166.938L238.012 166.885C238.054 166.79 238.098 166.699 238.144 166.605C238.163 166.568 238.18 166.531 238.2 166.497C238.219 166.463 238.256 166.388 238.287 166.337C238.319 166.286 238.331 166.256 238.356 166.217C238.38 166.178 238.421 166.11 238.458 166.059L238.541 165.935L238.597 165.86L238.723 165.701L238.789 165.626C238.847 165.56 238.906 165.497 238.972 165.433L238.996 165.409C239.069 165.339 239.149 165.27 239.239 165.205L239.339 165.124L239.524 164.99L239.648 164.91L239.87 164.776L239.972 164.723C240.087 164.659 240.216 164.598 240.34 164.54C240.464 164.482 240.673 164.411 240.849 164.352L240.966 164.314C241.126 164.206 241.304 164.16 241.487 164.116Z" fill="#424888"/>
<path d="M338.717 146.407L338.868 163.371L265.928 194.062L265.777 177.1L338.717 146.407Z" fill="#5860AB"/>
<path d="M208.875 138.704L239.047 126.007C239.894 126.521 240.685 127.121 241.409 127.797C242.819 129.654 241 132.179 243.357 133.786C246.278 135.75 253.436 135.32 259.367 132.826C259.532 132.756 259.696 132.688 259.854 132.615C265.427 130.131 267.659 126.662 264.828 124.751C263.016 123.533 259.898 123.607 257.356 123.137C256.075 122.922 254.824 122.558 253.628 122.051C252.911 121.672 252.23 121.228 251.593 120.724L281.804 108.013L338.704 146.407L265.775 177.11L242.234 161.227C242.327 161.18 242.427 161.136 242.527 161.09C243.54 160.649 244.578 160.269 245.636 159.951C249.144 159.179 253.894 160.116 256.927 158.841C260.643 157.185 259.885 153.431 255.311 150.344C250.685 147.222 243.909 145.961 240.177 147.537C237.859 148.569 237.949 150.195 237.053 151.527C236.505 152.331 235.793 153.01 234.965 153.521C234.853 153.587 234.429 153.801 233.891 154.039C233.448 154.239 232.917 154.453 232.445 154.616L208.875 138.704Z" fill="#6174B8"/>
<path d="M106.592 218.64C106.592 218.64 109.09 217.021 106.692 214.034C100.498 213.639 93.2137 210.294 93.2137 210.294C84.1081 207.428 71.3214 193.334 65.5002 186.921C58.9608 179.72 49.0616 185.833 54.3739 194.055C64.3048 209.439 90.4382 219.582 106.461 218.986" fill="#886962"/>
<path d="M38.8045 290.199C42.6098 272.426 43.7492 231.251 43.7492 231.251C43.7492 231.251 40.7011 227.205 29.7184 226.499C18.7358 225.793 19.4686 232.554 19.5197 231.675C19.5197 231.675 19.5197 260.81 24.5716 289.5C24.5716 289.5 32.4087 294.9 38.8045 290.199Z" fill="#053B6B"/>
<path d="M19.6315 233.693C18.5481 226.338 20.7904 218.917 21.9469 211.482H55.3866C57.5266 218.611 59.7519 225.934 59.7519 225.934C59.7519 225.934 61.1834 242.796 46.8605 244.817C46.8605 244.817 21.903 249.143 19.6315 233.693Z" fill="#007EA3"/>
<path d="M0 362.057C0 376.234 25.829 387.728 57.7009 387.728C89.5727 387.728 115.402 376.234 115.402 362.057C115.402 347.88 89.5727 336.386 57.7009 336.386C25.829 336.386 0 347.88 0 362.057Z" fill="#9EABD3"/>
<path d="M91.252 361.129L89.3481 361.017C88.6981 360.917 88.7029 361.94 88.6177 361.974C86.6238 362.76 84.8538 363.372 84.1064 363.403C84.1064 363.403 80.581 362.945 80.2109 361.879L80.6979 355.337C84.6274 355.009 88.7322 354.249 88.7322 354.249L97.3678 353.032C101.521 352.598 102.276 354.1 102.276 354.1C102.276 354.1 104.813 357.903 91.252 361.129Z" fill="#17181C"/>
<path d="M86.0127 360.742C86.7268 360.415 87.4758 360.17 88.2452 360.012C92.5034 359.267 96.6715 358.843 100.216 356.116C101.081 355.447 101.692 354.617 101.755 353.623C101.961 353.744 102.137 353.911 102.269 354.11C102.269 354.11 104.813 357.908 91.252 361.134L89.3481 361.022C88.6981 360.922 88.7029 361.945 88.6177 361.979C86.6238 362.765 84.8538 363.376 84.1064 363.408C84.1064 363.408 80.581 362.95 80.2109 361.884L80.3327 360.289C81.7253 361.09 84.2013 361.58 86.0127 360.742Z" fill="#040308"/>
<path d="M33.5787 359.51L31.6723 359.398C31.0223 359.298 31.0272 360.319 30.942 360.355C28.9504 361.139 27.1804 361.753 26.4306 361.784C26.4306 361.784 22.9077 361.326 22.5352 360.258L23.0221 353.718C26.9516 353.387 31.0564 352.63 31.0564 352.63L39.6896 351.413C43.8455 350.979 44.6003 352.484 44.6003 352.484C44.6003 352.484 47.1396 356.284 33.5787 359.51Z" fill="#17181C"/>
<path d="M28.3369 359.123C29.0507 358.795 29.7998 358.55 30.5695 358.393C34.8301 357.648 38.9957 357.224 42.5406 354.497C43.4073 353.83 44.0184 353 44.0793 352.007C44.2866 352.127 44.4633 352.294 44.5954 352.494C44.5954 352.494 47.1396 356.292 33.5787 359.517L31.6723 359.405C31.0223 359.306 31.0272 360.326 30.942 360.362C28.9504 361.146 27.1804 361.76 26.4306 361.791C26.4306 361.791 22.9077 361.334 22.5352 360.265L22.6545 358.673C24.0495 359.464 26.528 359.951 28.3369 359.123Z" fill="#040308"/>
<path d="M32.8475 354.195C34.262 352.508 38.9024 290.498 38.9024 290.498C39.6717 280.966 23.8077 284.969 23.8077 284.969C21.4996 294.464 21.8746 296.244 21.149 308.02C20.8617 312.67 21.6019 351.194 21.4314 354.156C21.4558 354.156 28.7987 359.031 32.8475 354.195Z" fill="#053B6B"/>
<path d="M45.0038 220.103C45.0038 220.103 54.5208 236.306 48.6558 246.901C42.7907 257.497 18.1206 245.964 19.6373 233.698C21.3124 220.242 33.5002 214.418 45.0038 220.103Z" fill="#30528B"/>
<path d="M51.8322 199.443C53.3782 204.945 59.7545 225.934 59.7545 225.934C42.2811 242.412 19.7291 229.342 19.5002 226.857C19.2275 223.874 22.5557 212.492 23.1522 200.21C23.1595 200.21 29.3824 190.624 51.8322 199.443Z" fill="#886962"/>
<path d="M72.8565 287.121C71.0013 269.037 58.1197 222.905 58.1197 222.905C58.1197 222.905 54.3533 219.438 43.6896 222.146C33.0259 224.853 31.8426 238.777 31.6211 237.925C31.6211 237.925 44.0377 267.123 60.5421 292.85C60.5421 292.85 68.5204 296.933 72.8565 287.121Z" fill="#30528B"/>
<path d="M88.9483 353.507C88.6342 351.315 72.5535 286.532 72.5535 286.532C68.7676 278.542 57.8945 286.956 57.8945 286.956C57.9335 292.755 58.0869 299.75 61.8338 310.937C63.3116 315.356 76.9845 355.371 77.934 358.169C77.9389 358.181 86.0146 360.742 88.9483 353.507Z" fill="#30528B"/>
<path d="M10.5678 157.45C10.5678 157.45 8.83919 186.554 9.94208 198.301C9.94208 198.301 9.94207 203.64 19.3446 206.316C19.3446 206.316 22.7653 173.916 25.5505 159.449C25.5505 159.449 19.9947 148.722 10.5678 157.45Z" fill="#886962"/>
<path d="M21.0686 164.966C19.2208 165.754 17.1363 165.779 15.2699 165.036C13.4035 164.293 11.9067 162.842 11.1061 161C10.7171 160.088 10.5125 159.107 10.5042 158.116C10.4959 157.124 10.684 156.141 11.0577 155.222C11.4314 154.304 11.9832 153.468 12.6814 152.764C13.3796 152.06 14.2104 151.501 15.1257 151.12C16.9741 150.335 19.0578 150.311 20.9235 151.054C22.7892 151.797 24.286 153.247 25.0882 155.088C25.4776 156 25.6824 156.98 25.6908 157.972C25.6993 158.963 25.5112 159.947 25.1374 160.865C24.7637 161.783 24.2117 162.619 23.5133 163.322C22.815 164.026 21.9841 164.585 21.0686 164.966Z" fill="#886962"/>
<path d="M17.1228 149.214C17.1228 149.214 10.2547 150.816 9.88216 158.775L8.76953 187.46C8.76953 187.46 15.6352 192.02 24.5314 191.243C24.5314 191.243 34.7934 152.936 17.1228 149.214Z" fill="#35977F"/>
<path d="M43.0771 131.003C43.0771 131.003 43.138 141.248 44.0315 151.454L30.5168 149.216C30.5168 149.216 32.4962 144.556 29.7109 140.388L43.0771 131.003Z" fill="#886962"/>
<path d="M17.124 149.214C13.7302 151.695 13.3406 157.625 14.5506 161.328C15.9432 165.584 16.4983 171.013 17.8885 177.166C19.7778 185.504 21.0535 191.927 23.1595 200.21C24.9027 207.056 52.4214 201.539 52.4214 201.539L62.2865 167.834C62.2865 167.834 63.9908 159.035 56.0125 156.106C56.0125 156.106 47.6179 151.573 41.4704 149.489C36.0412 147.651 34.074 147.48 28.5011 147.823C28.5011 147.823 21.0341 148.096 17.124 149.214Z" fill="#886962"/>
<path d="M57.4438 219.261C57.4438 219.261 63.3015 228.712 57.4438 239.305C51.586 249.898 33.7061 246.037 33.6525 232.315C33.6014 218.759 45.9401 213.576 57.4438 219.261Z" fill="#30528B"/>
<path d="M28.5 147.823C28.5 147.823 21.033 148.096 17.123 149.214C13.5928 151.794 13.6536 156.863 14.3353 160.698C15.6378 168.031 16.9599 175.44 17.6391 182.853C17.941 186.14 18.7615 192.835 19.0049 196.119C19.2484 199.314 20.2539 201.074 23.5212 202.761C26.0045 204.042 27.85 203.024 30.5573 203.097C37.4376 203.284 44.2326 202.532 51.0496 201.687C51.3393 201.653 61.9811 208.833 58.4801 203.55L62.2855 167.834C62.2855 167.834 63.9897 159.035 56.0114 156.106C56.0114 156.106 50.4118 152.595 44.2594 150.506C44.2594 150.514 33.5689 150.786 28.5 147.823Z" fill="#35977F"/>
<path d="M47.6208 142.835L48.1978 140.61L49.5661 132.405C49.7152 131.274 49.6281 130.124 49.3105 129.028C48.9867 127.933 48.731 126.776 48.8893 125.566C49.6732 119.689 46.3816 116.77 46.3816 116.77C42.5519 111.737 34.5858 112.441 34.5834 112.441C30.4445 113.067 26.8412 114.776 24.7864 118.545C22.9215 121.953 21.9062 126.131 23.014 129.946C24.2313 134.129 26.571 137.396 29.6727 140.364C31.6569 142.263 33.685 142.494 36.2827 143.446C38.0917 144.106 41.5537 144.493 43.4771 144.505C44.485 144.508 47.2897 144.113 47.6208 142.835Z" fill="#886962"/>
<path d="M46.0432 120.176L44.7723 125.269C43.3237 125.904 42.7443 126.464 42.9415 128.371L43.4016 132.578L42.2574 133.016C42.3523 131.331 40.015 131.312 40.015 131.312C38.3108 131.214 38.0162 132.67 38.1136 134.073C38.3571 137.712 37.0424 143.492 33.9918 144.51C32.7866 144.912 30.5151 145.33 30.1329 143.697C29.6678 141.7 25.8869 137.737 25.8869 137.737C21.3438 133.34 20.2069 125.831 22.3518 120.098C23.0862 118.278 24.1982 116.635 25.6142 115.277C28.4457 112.57 32.0124 111.236 35.769 110.746C35.769 110.746 40.9475 110.116 43.8593 112.159C45.661 113.427 46.8466 114.593 47.616 115.596C47.6208 115.591 48.7213 117.931 46.0432 120.176Z" fill="#3F1901"/>
<path d="M41.8753 136.588C41.504 136.904 41.0339 137.082 40.546 137.089C39.0341 137.162 37.6901 135.828 37.5441 134.109C37.398 132.391 38.5179 130.944 40.0177 130.866C40.3714 130.855 40.7239 130.913 41.0549 131.039C41.3858 131.164 41.6887 131.354 41.9459 131.597C42.7201 132.31 42.8321 133.71 42.7201 134.686C42.6349 135.478 42.372 136.154 41.8753 136.588Z" fill="#886962"/>
<path d="M40.7309 132.429C40.5824 131.531 38.8124 132.51 39.1192 133.002C39.3352 133.27 39.5994 133.495 39.8983 133.666C40.0656 133.769 40.2082 133.907 40.316 134.071C40.4237 134.236 40.4939 134.421 40.5215 134.616C40.5215 134.672 40.5507 134.825 40.4996 134.859C40.2756 135.039 39.4454 134.204 39.2628 134.031C39.0942 133.839 38.977 133.606 38.9221 133.356C38.8672 133.106 38.8763 132.846 38.9487 132.6C38.9921 132.382 39.1139 132.187 39.2911 132.052C39.4683 131.918 39.6886 131.853 39.9104 131.87C40.3219 131.87 40.7431 131.87 40.7504 132.381C40.7504 132.381 40.7358 132.478 40.7309 132.432V132.429Z" fill="#886962"/>
<path d="M40.2001 133.403C40.3778 133.199 40.5701 133.347 40.7722 133.476C40.9535 133.594 41.0825 133.777 41.1325 133.988C41.2798 134.492 41.2338 135.034 41.0035 135.507C40.9085 135.678 40.7713 135.821 40.6051 135.924C40.4389 136.026 40.2492 136.085 40.054 136.094C39.5038 136.111 39.309 135.636 39.2579 135.171C39.2579 135.049 39.214 134.752 39.3333 134.669C39.4526 134.586 39.5768 134.776 39.6596 134.859C39.801 134.961 39.9726 135.011 40.1465 135.003C40.3027 135.001 40.4563 134.963 40.5947 134.891C40.7331 134.818 40.8524 134.714 40.9426 134.586C40.9741 134.542 40.9988 134.492 41.0157 134.44C41.0351 134.745 41.0157 134.813 40.9792 134.647C40.9514 134.573 40.9119 134.503 40.8623 134.44C40.7211 134.238 40.4971 134.107 40.3413 133.915C40.2707 133.827 40.1197 133.508 40.2098 133.403H40.2001Z" fill="#886962"/>
<path d="M116.134 215.545C115.432 214.508 116.046 213.968 114.626 213.921C113.012 213.868 111.566 213.072 110.471 213.101C108.562 213.154 101.35 214.837 106.188 218.964C107.315 219.937 110.539 224.234 112.762 222.959C116.058 221.069 114.938 221.766 116.613 217.666L116.134 215.545Z" fill="#886962"/>
<path d="M48.8938 162.602C47.989 164.01 47.5221 165.654 47.5521 167.328C47.5822 169.001 48.1078 170.628 49.0625 172.002C50.0172 173.377 51.3582 174.437 52.9157 175.05C54.4732 175.662 56.1773 175.798 57.8125 175.442C59.4477 175.086 60.9405 174.252 62.102 173.048C63.2635 171.843 64.0416 170.321 64.3379 168.673C64.6341 167.026 64.4352 165.328 63.7663 163.794C63.0974 162.26 61.9886 160.959 60.5801 160.055C58.6922 158.845 56.4011 158.433 54.21 158.91C52.0188 159.388 50.1068 160.716 48.8938 162.602Z" fill="#886962"/>
<path d="M59.5023 193.96C60.6003 205.498 61.3088 233.754 61.3088 233.754C57.2137 244.683 18.1524 235.458 17.926 232.97C17.6533 229.988 18.4543 208.989 19.0581 196.709C19.0581 196.709 37.0525 185.144 59.5023 193.96Z" fill="#35977F"/>
<path d="M54.1849 155.147C64.4737 158.044 65.7519 170.485 65.7519 170.485L70.3972 190.936C70.3972 190.936 58.7109 200.205 51.5823 197.597C51.5823 197.597 45.7781 182.162 43.957 166.777C43.957 166.785 44.0301 155.483 54.1849 155.147Z" fill="#35977F"/>
<path d="M48.2331 120.059C47.0693 120.996 45.5915 120.38 44.2622 120.074C42.4508 122.199 44.6176 124.322 41.8738 125.352C40.413 125.897 38.2705 126.053 36.6612 126.326C35.3757 126.533 34.0756 126.236 33.1554 127.197C32.1596 128.237 33.1042 131.475 31.938 132.093C29.8832 133.179 28.269 127.55 25.6494 127.996C23.4119 128.376 23.0151 131.925 23.7991 133.671C23.6217 133.514 23.4254 133.38 23.2147 133.272C22.1484 130.494 20.7801 130.445 19.6115 128.468C17.7879 125.405 18.0971 126.136 17.7344 123.195C17.7344 123.168 18.0923 121.907 18.0971 121.89C18.9517 118.759 20.4149 118.238 21.1185 116.896C21.8489 115.494 23.0054 114.51 23.9549 113.276C24.8313 112.137 25.272 110.598 26.2775 109.588C27.8065 108.042 30.3093 107.267 32.4104 106.992C34.6746 106.693 36.8268 108.098 39.0715 107.706C39.9918 107.543 40.8512 106.707 41.774 106.761C42.9012 106.824 43.6803 107.939 44.6541 108.378C46.4631 109.191 49.3116 108.865 50.8576 110.135C52.5618 111.543 52.1991 113.578 51.1473 115.302C50.5557 116.276 49.3603 116.826 48.8295 117.826C48.6737 118.092 48.2744 120.03 48.2331 120.059Z" fill="#3F1901"/>
<path d="M366.099 111.838C366.099 111.838 356.724 128.237 349.312 146.728C349.312 146.728 349.449 150.246 352.039 149.163C354.63 148.079 375.536 118.467 375.558 115.772C375.611 108.838 366.099 111.838 366.099 111.838Z" fill="#886962"/>
<path d="M344.314 153.767L346.571 153C346.571 153 342.748 155.354 340.99 154.419C340.99 154.419 340.581 154.312 340.964 153.667C340.964 153.667 344.601 152.403 346.076 151.437C346.076 151.437 342.712 153.44 340.043 153.983C340.043 153.983 338.826 153.63 339.729 152.688C338.806 152.625 339.342 151.863 339.342 151.863C340.014 151.223 340.743 150.647 341.521 150.142C343.25 148.905 344.914 147.581 346.507 146.173C346.507 146.173 343.622 145.345 344.131 143.804L348.433 144.608L352.445 145.723L353.592 147.851L350.86 151.349C350.86 151.349 347.897 153.757 345.991 154.417C345.991 154.417 340.44 155.929 344.314 153.767Z" fill="#886962"/>
<path d="M249.802 210.333C249.802 209.586 250.199 208.906 251.02 208.358C251.151 208.269 251.288 208.188 251.429 208.115L251.565 208.047L251.877 207.906C251.903 207.906 251.928 207.881 251.957 207.872L252.03 207.847C252.2 207.781 252.373 207.721 252.556 207.667C252.738 207.613 252.931 207.567 253.123 207.523L253.191 207.506L253.277 207.489C253.503 207.441 253.732 207.397 253.968 207.355H253.99H254.065C254.309 207.319 254.535 207.285 254.776 207.253H254.869C255.127 207.219 255.387 207.19 255.648 207.158H255.694L255.869 207.139L256.395 207.078C256.639 207.051 256.882 207.019 257.126 206.99L257.272 206.971C257.515 206.939 257.759 206.905 257.985 206.866L258.358 206.805C258.601 206.756 258.862 206.705 259.115 206.649L259.258 206.618C259.439 206.579 259.619 206.535 259.799 206.489H259.816C259.999 206.442 260.179 206.391 260.356 206.34L260.522 206.291L260.89 206.175L261.07 206.114C261.192 206.072 261.313 206.029 261.428 205.985L261.574 205.929C261.73 205.865 261.881 205.802 262.024 205.736C262.732 205.366 263.403 204.929 264.028 204.431L263.882 221.121C263.257 221.618 262.587 222.055 261.881 222.426C261.734 222.494 261.581 222.557 261.425 222.621C261.413 222.624 261.402 222.629 261.391 222.635L261.289 222.672C261.17 222.718 261.045 222.762 260.921 222.806L260.746 222.864C260.624 222.905 260.503 222.942 260.378 222.981L260.266 223.015L260.208 223.03C260.03 223.083 259.852 223.132 259.672 223.178H259.648C259.47 223.224 259.293 223.266 259.112 223.307L259.054 223.322L258.966 223.339C258.723 223.392 258.462 223.446 258.212 223.49L257.9 223.546H257.834C257.591 223.585 257.367 223.619 257.131 223.648L256.97 223.67L256.264 223.755H256.244L255.743 223.814L255.499 223.84C255.241 223.87 254.986 223.901 254.73 223.935H254.638C254.394 223.967 254.151 224.001 253.924 224.04L253.829 224.055C253.586 224.096 253.362 224.14 253.135 224.188L252.987 224.22C252.792 224.266 252.6 224.313 252.415 224.369C252.233 224.422 252.055 224.483 251.881 224.551L251.731 224.61C251.623 224.653 251.521 224.7 251.419 224.751C251.373 224.773 251.326 224.792 251.283 224.817C251.141 224.892 251.003 224.97 250.874 225.06C250.06 225.61 249.673 226.277 249.656 227.035L249.802 210.333Z" fill="#004E89"/>
<path d="M184.616 226.063L184.594 225.968C184.594 225.939 184.594 225.91 184.577 225.881C184.56 225.851 184.577 225.861 184.577 225.851C184.57 225.808 184.565 225.764 184.562 225.72C184.562 225.686 184.562 225.654 184.562 225.62C184.562 225.586 184.562 225.528 184.562 225.479C184.562 225.43 184.562 225.428 184.562 225.401V225.367L184.711 208.675C184.711 208.714 184.711 208.751 184.711 208.789C184.711 208.828 184.711 208.884 184.711 208.931C184.711 208.977 184.711 208.996 184.711 209.028C184.711 209.06 184.711 209.116 184.728 209.162C184.733 209.2 184.741 209.239 184.75 209.276C184.75 209.31 184.75 209.34 184.769 209.374C184.789 209.408 184.791 209.452 184.801 209.491L184.828 209.583C184.835 209.598 184.841 209.613 184.845 209.629C184.886 209.744 184.934 209.857 184.989 209.965C185.044 210.071 185.106 210.174 185.174 210.272L185.205 210.321C185.276 210.418 185.351 210.512 185.432 210.601L185.502 210.676L185.583 210.757L185.678 210.847C185.704 210.874 185.734 210.898 185.765 210.925L185.85 210.995C185.902 211.037 185.955 211.076 186.011 211.115C186.038 211.137 186.066 211.157 186.096 211.175C186.16 211.219 186.223 211.261 186.289 211.3L186.364 211.346C186.423 211.382 186.483 211.416 186.547 211.448L186.63 211.494C186.722 211.541 186.817 211.587 186.917 211.631C187.107 211.711 187.304 211.782 187.506 211.847C187.572 211.869 187.642 211.886 187.713 211.906C187.849 211.945 187.986 211.986 188.129 212.02L188.241 212.045C188.402 212.081 188.565 212.113 188.728 212.142L188.928 212.174C189.081 212.2 189.237 212.222 189.393 212.242L189.549 212.259C189.751 212.283 189.958 212.305 190.167 212.32C190.296 212.32 190.43 212.339 190.561 212.346L190.895 212.366C191.029 212.366 191.165 212.378 191.302 212.383H191.63C191.891 212.383 192.151 212.383 192.417 212.398H192.436H193.366H193.958H194.25H194.754H194.88C194.956 212.398 195.027 212.398 195.1 212.398L195.479 212.412L195.835 212.432L196.2 212.454H196.324C196.461 212.454 196.594 212.478 196.728 212.493H196.811C196.986 212.512 197.162 212.531 197.332 212.558H197.393C197.637 212.595 197.899 212.639 198.145 212.692H198.167H198.192H198.226L198.279 212.707H198.323L198.391 212.729L198.445 212.746L198.532 212.775L198.588 212.792L198.693 212.826L198.756 212.846L198.873 212.885L198.939 212.909L199.068 212.953L199.141 212.977L199.27 213.023L199.355 213.053L199.48 213.096L199.582 213.135L199.704 213.179L199.811 213.218L199.935 213.264L200.047 213.306L200.171 213.354L200.281 213.398L200.407 213.444L200.517 213.491L200.641 213.539L200.748 213.586L200.879 213.639L200.974 213.681C201.047 213.712 201.12 213.742 201.191 213.776C201.262 213.81 201.396 213.866 201.491 213.912L201.344 230.601L201.045 230.465L200.828 230.37L200.755 230.341C200.704 230.317 200.653 230.297 200.602 230.275L200.512 230.239L200.371 230.18L200.271 230.141L200.134 230.088L200.03 230.049L199.898 229.998L199.789 229.956L199.665 229.907L199.56 229.869L199.433 229.825L199.333 229.788L199.212 229.744L199.105 229.705L199.002 229.671C198.967 229.657 198.932 229.645 198.895 229.635L198.8 229.601L198.708 229.569L198.615 229.54L198.532 229.511L198.447 229.484L198.374 229.46L198.304 229.438L198.238 229.418L198.179 229.399L198.128 229.384L198.08 229.369H198.046L197.999 229.357C197.756 229.301 197.512 229.26 197.245 229.221C197.055 229.192 196.862 229.165 196.668 229.145H196.57C196.4 229.128 196.227 229.111 196.052 229.099L195.689 229.075L195.331 229.055L194.958 229.041H194.603H194.116H193.809H193.225H192.458H192.266L191.491 229.024H191.453H191.134L190.749 229.009L190.406 228.987L190.023 228.963H189.982C189.787 228.946 189.592 228.926 189.4 228.904L189.256 228.887L188.967 228.851L188.782 228.819L188.587 228.785C188.421 228.758 188.261 228.724 188.1 228.688L187.983 228.663H187.952C187.818 228.629 187.691 228.59 187.562 228.554L187.362 228.498C187.16 228.432 186.963 228.362 186.773 228.281C186.673 228.237 186.578 228.191 186.486 228.145C186.454 228.128 186.425 228.108 186.393 228.094L186.221 227.999H186.201L186.14 227.957C186.074 227.921 186.014 227.879 185.955 227.84L185.865 227.775C185.811 227.736 185.758 227.697 185.707 227.655L185.656 227.616L185.619 227.585L185.534 227.509L185.437 227.417L185.359 227.339L185.308 227.288L185.288 227.263C185.208 227.173 185.132 227.079 185.062 226.981L185.047 226.964C185.04 226.954 185.035 226.943 185.03 226.932C184.961 226.836 184.899 226.734 184.845 226.628C184.792 226.521 184.745 226.41 184.706 226.297C184.705 226.287 184.705 226.277 184.706 226.268V226.246C184.706 226.217 184.689 226.187 184.679 226.156C184.67 226.124 184.626 226.105 184.616 226.063Z" fill="#004E89"/>
<path d="M178.326 229.664L178.18 246.356L249.943 276.552L250.089 259.861L178.326 229.664Z" fill="#0061A2"/>
<path d="M250.087 259.861L249.941 276.553L305.923 238.777L306.07 222.087L250.087 259.861Z" fill="#004E89"/>
<path d="M306.065 222.087L276.362 209.595C275.531 210.101 274.754 210.692 274.044 211.358C272.657 213.184 274.446 215.677 272.119 217.247C269.251 219.18 262.2 218.759 256.366 216.305C256.203 216.235 256.04 216.166 255.88 216.093C250.399 213.659 248.206 210.25 250.988 208.358C252.771 207.156 255.841 207.234 258.339 206.774C259.599 206.562 260.829 206.203 262.005 205.702C262.713 205.332 263.384 204.895 264.009 204.397L234.287 191.891L211.114 207.543C210.627 207.38 210.118 207.168 209.68 206.971C209.323 206.819 208.975 206.649 208.635 206.462C207.82 205.965 207.119 205.301 206.578 204.514C205.697 203.202 205.784 201.593 203.618 200.636C199.832 199.041 193.168 200.278 188.615 203.35C184.114 206.386 183.371 210.08 186.911 211.655C190.018 212.965 194.687 212.042 198.14 212.802C199.176 213.114 200.193 213.487 201.185 213.919C201.29 213.963 201.39 214.009 201.485 214.056L178.324 229.683L250.088 259.873L306.065 222.087Z" fill="#196EAB"/>
<path d="M347.534 396.198C347.534 406.272 329.181 414.436 306.544 414.436C283.907 414.436 265.555 406.272 265.555 396.198C265.555 386.123 283.912 377.967 306.554 377.967C329.196 377.967 347.534 386.126 347.534 396.198Z" fill="#9EABD3"/>
<path d="M285.762 395.642C285.762 395.642 281.416 394.846 282.639 398.394C282.639 398.394 292.791 402.754 299.881 401.77C299.881 401.77 304.862 401.602 304.08 396.198L304.163 391.803L297.48 393.071L297.86 397.244L285.762 395.642Z" fill="#886962"/>
<path d="M304.081 396.198C304.097 396.886 303.86 397.557 303.414 398.082C301.666 400.098 298.226 400.159 295.806 400.005C291.913 399.741 288.043 399.2 284.227 398.386C283.399 398.211 283.168 397.941 283.161 397.697C283.38 397.159 283.736 396.688 284.192 396.328C284.648 395.967 285.189 395.731 285.763 395.642L282.063 395.168C278.654 395.046 277.098 395.83 276.3 396.346C275.355 399.048 279.952 400.853 279.952 400.853C283.464 402.122 287.067 403.127 290.73 403.859C290.73 403.859 303.724 406.925 305.294 402.927L304.081 396.198Z" fill="#026D58"/>
<path d="M311.575 389.602C311.575 389.602 307.227 388.808 308.452 392.353C308.452 392.353 318.602 396.714 325.691 395.733C325.691 395.733 330.675 395.565 329.894 390.157L329.976 385.775L323.293 387.038L323.673 391.214L311.575 389.602Z" fill="#886962"/>
<path d="M329.894 390.157C329.911 390.846 329.673 391.517 329.227 392.042C327.479 394.06 324.039 394.121 321.619 393.965C317.725 393.702 313.856 393.161 310.039 392.346C309.212 392.171 308.98 391.9 308.971 391.657C309.192 391.12 309.548 390.648 310.004 390.288C310.46 389.928 311.002 389.692 311.576 389.602L307.875 389.13C304.467 389.008 302.908 389.79 302.112 390.306C301.168 393.008 305.764 394.81 305.764 394.81C309.277 396.082 312.879 397.088 316.542 397.822C316.542 397.822 329.536 400.884 331.106 396.889L329.894 390.157Z" fill="#026D58"/>
<path d="M310.371 272.272C310.371 274.728 311.099 277.129 312.464 279.171C313.828 281.213 315.767 282.804 318.036 283.744C320.305 284.684 322.802 284.93 325.21 284.45C327.619 283.971 329.831 282.789 331.568 281.052C333.304 279.316 334.487 277.103 334.966 274.695C335.445 272.286 335.199 269.79 334.259 267.521C333.319 265.252 331.728 263.313 329.686 261.948C327.644 260.584 325.244 259.856 322.788 259.856C319.495 259.856 316.336 261.164 314.008 263.492C311.679 265.821 310.371 268.979 310.371 272.272Z" fill="#00468B"/>
<path d="M330.585 331.999C330.585 331.999 330.407 335.118 324.807 335.196C324.807 335.196 319.502 337.005 317.211 330.097C308.189 302.898 310.575 274.515 310.575 274.515C310.575 274.515 323.315 267.418 335.181 272.272C335.184 272.272 333.265 307.974 330.585 331.999Z" fill="#00468B"/>
<path d="M317.215 330.097C317.215 330.097 321.597 388.884 321.994 390.985C326.259 393.692 330.028 390.91 330.028 390.91C330.006 388.027 333.15 363.987 333.473 359.473C334.031 351.714 334.963 341.912 330.065 330.762L317.215 330.097Z" fill="#00468B"/>
<path d="M294.62 333.793C294.62 333.793 293.425 336.678 288.113 334.894C288.113 334.894 282.513 334.845 282.635 327.57C283.122 298.917 295.687 269.222 295.687 269.222C295.687 269.222 309.83 267.871 319.42 276.382C319.427 276.382 305.116 312.011 294.62 333.793Z" fill="#0058A9"/>
<path d="M296.013 268.165C295.197 270.482 295.087 272.989 295.697 275.368C296.306 277.748 297.608 279.893 299.437 281.532C301.265 283.172 303.539 284.232 305.971 284.579C308.403 284.926 310.882 284.544 313.097 283.482C315.311 282.419 317.161 280.724 318.412 278.61C319.662 276.496 320.258 274.058 320.123 271.606C319.988 269.153 319.129 266.796 317.654 264.832C316.18 262.868 314.155 261.385 311.838 260.572C308.732 259.481 305.321 259.669 302.354 261.093C299.386 262.517 297.105 265.06 296.013 268.165Z" fill="#0058A9"/>
<path d="M335.189 270.466C333.69 256.669 326.768 250.258 326.768 250.258L302.784 247.227C302.784 247.227 296.172 258.731 295.48 270.456C298.346 278.276 308.564 280.555 308.564 280.555L316.323 282.858C316.323 282.858 333.909 280.194 335.189 270.466Z" fill="#0058A9"/>
<path d="M283.751 333.277C283.751 333.277 295.647 395.032 296.363 397.047C296.049 396.896 301.984 399.774 304.614 396.059C304.166 393.21 303.915 361.843 303.567 357.329C302.97 349.572 303.053 342.334 296.555 332.033C296.555 332.033 280.313 320.407 283.751 333.277Z" fill="#0058A9"/>
<path d="M336.962 225.15C336.962 225.15 332.579 230.294 323.902 242.716L325.404 245.26C325.404 245.26 340.287 237.764 345.035 229.347L336.962 225.15Z" fill="#886962"/>
<path d="M324.659 206.742C324.659 206.742 335.858 231.188 342.593 230.258C342.593 230.258 344.913 230.404 345.378 228.653C345.378 228.653 350.13 224.439 330.371 194.04C330.371 194.04 328.442 191.459 324.486 192.127C324.486 192.127 318.48 196.1 324.659 206.742Z" fill="#886962"/>
<path d="M318.653 187.603H306.543V200.475H318.653V187.603Z" fill="#F4B78E"/>
<path d="M299.053 187.898L298.597 185.84L297.692 178.293C297.605 177.252 297.758 176.205 298.14 175.233C298.524 174.259 298.851 173.212 298.756 172.102C298.303 166.709 301.775 164.221 301.775 164.221C305.913 159.838 313.872 160.885 313.875 160.885C317.989 161.667 321.517 163.408 323.37 166.948C325.05 170.154 325.831 174.008 324.504 177.416C323.044 181.163 320.509 184.017 317.225 186.559C315.124 188.185 313.071 188.294 310.408 189.025C308.553 189.534 305.052 189.709 303.121 189.621C302.108 189.582 299.313 189.078 299.053 187.898Z" fill="#886962"/>
<path d="M304.565 180.92C305.164 180.073 307.338 179.549 307.341 179.549C309.97 179.549 309.627 183.06 309.873 184.579C309.955 185.066 310.05 185.582 310.162 186.089C311.414 190.549 315.166 190.51 318.369 191.05C318.489 190.98 318.613 190.909 318.744 190.839C319.324 188.862 321.179 186.807 321.179 186.807C325.992 182.646 327.563 175.167 325.729 169.277C325.097 167.409 324.073 165.697 322.727 164.255C320.035 161.372 316.529 159.831 312.78 159.125C309.03 158.419 295.737 160.233 299.362 168.328C299.362 168.328 304.848 174.658 304.575 180.915" fill="#340E08"/>
<path d="M304.562 180.92C305.049 179.717 306.211 178.792 307.53 179.184C307.99 179.307 308.39 179.59 308.658 179.983C308.926 180.376 309.044 180.851 308.991 181.324C308.972 181.541 308.923 181.755 308.901 181.969C308.521 184.279 306.087 185.161 306.087 185.161" fill="#F8B78F"/>
<path d="M307.281 180.274C307.1 180.179 306.901 180.125 306.697 180.116C305.813 180.06 305.102 181.421 305.986 181.665C306.317 181.988 305.986 182.363 305.986 182.363C305.681 182.694 305.272 183.169 305.365 183.634C305.421 183.909 305.728 184.058 306.003 184.121C306.227 184.177 306.268 184.002 306.093 183.919C305.962 183.853 305.847 183.759 305.757 183.644C305.749 183.627 305.74 183.611 305.73 183.595C305.721 183.586 305.714 183.574 305.711 183.561C305.686 183.496 305.686 183.424 305.711 183.359C305.808 183.437 305.928 183.48 306.053 183.48C306.177 183.48 306.298 183.437 306.395 183.359C306.563 183.157 306.436 182.843 306.492 182.612C306.537 182.45 306.606 182.296 306.697 182.154C307.101 181.48 306.373 181.365 306.373 181.365C306.282 181.367 306.192 181.373 306.103 181.385C305.733 181.195 306.146 180.637 306.373 180.55C306.5 180.495 306.641 180.478 306.777 180.502C306.914 180.526 307.041 180.589 307.142 180.683C307.32 180.903 307.407 181.183 307.386 181.465C307.363 181.788 307.28 182.104 307.142 182.397C307.062 182.565 306.96 182.76 306.879 182.928C306.799 183.096 307.008 183.201 307.101 183.009C307.293 182.609 307.653 182.035 307.731 181.472C307.78 181.25 307.764 181.019 307.684 180.807C307.604 180.594 307.464 180.409 307.281 180.274Z" fill="#DD9D7E"/>
<path d="M304.562 180.92C304.562 180.92 304.67 180.769 304.84 180.496C304.951 180.346 305.074 180.205 305.208 180.075C305.375 179.907 305.562 179.761 305.765 179.639C305.999 179.506 306.255 179.414 306.52 179.366C306.808 179.32 307.103 179.341 307.382 179.427C307.534 179.473 307.681 179.535 307.82 179.612C307.945 179.688 308.062 179.777 308.168 179.878C308.391 180.092 308.55 180.363 308.628 180.662C308.7 180.982 308.705 181.313 308.643 181.635L308.609 181.901V181.935C308.609 181.92 308.609 181.974 308.609 181.903V181.928V181.993L308.582 182.122C308.554 182.282 308.511 182.438 308.455 182.59C308.354 182.878 308.216 183.152 308.046 183.405C307.89 183.64 307.712 183.86 307.516 184.063C307.215 184.375 306.881 184.652 306.52 184.891C306.255 185.066 306.091 185.156 306.091 185.156C306.258 185.115 306.42 185.061 306.578 184.995C306.999 184.826 307.395 184.6 307.754 184.323C307.998 184.134 308.22 183.916 308.414 183.676C308.642 183.406 308.827 183.103 308.962 182.777C309.036 182.606 309.095 182.428 309.137 182.247L309.171 182.12L309.188 182.054V182.037V181.986V181.952L309.227 181.687C309.308 181.296 309.308 180.892 309.227 180.501C309.113 180.096 308.889 179.73 308.58 179.444C308.502 179.375 308.421 179.31 308.336 179.25L308.059 179.094C307.889 179.011 307.71 178.948 307.525 178.906C307.167 178.818 306.791 178.823 306.435 178.921C305.865 179.076 305.371 179.434 305.045 179.926C304.93 180.089 304.83 180.261 304.745 180.44C304.621 180.744 304.562 180.92 304.562 180.92Z" fill="#DD9D7E"/>
<path d="M306.082 184.596C306.082 184.741 306.039 184.882 305.959 185.002C305.879 185.122 305.764 185.216 305.631 185.271C305.498 185.326 305.351 185.341 305.209 185.312C305.067 185.284 304.937 185.215 304.835 185.113C304.733 185.01 304.663 184.88 304.635 184.739C304.607 184.597 304.621 184.45 304.677 184.317C304.732 184.183 304.826 184.069 304.946 183.989C305.066 183.909 305.207 183.866 305.351 183.866C305.545 183.866 305.731 183.943 305.868 184.08C306.005 184.217 306.082 184.402 306.082 184.596Z" fill="white"/>
<path d="M305.525 184.986C305.388 184.985 305.256 184.935 305.153 184.846C305.049 184.757 304.98 184.634 304.959 184.499C304.938 184.364 304.965 184.225 305.036 184.108C305.107 183.992 305.218 183.904 305.348 183.861C305.203 183.861 305.062 183.904 304.942 183.984C304.822 184.064 304.728 184.178 304.673 184.312C304.617 184.445 304.603 184.592 304.631 184.734C304.659 184.875 304.729 185.006 304.831 185.108C304.933 185.21 305.063 185.279 305.205 185.308C305.347 185.336 305.494 185.321 305.627 185.266C305.761 185.211 305.875 185.117 305.955 184.997C306.035 184.877 306.078 184.736 306.078 184.591C306.078 184.572 306.078 184.555 306.078 184.538C306.05 184.664 305.98 184.777 305.88 184.858C305.779 184.939 305.654 184.984 305.525 184.986Z" fill="#E6E7E8"/>
<path d="M338.102 256.018L324.731 236.834C324.108 234.014 325.513 228.405 325.513 228.405L329.788 199.007C329.281 195.64 329.058 191.362 324.488 192.126C321.272 192.664 320.636 193.115 318.645 193.753C319.224 196.482 314.506 198.235 314.506 198.235C308.025 201.035 306.525 199.192 306.525 199.192C304.799 200.124 298.978 203.038 297.454 204.285C295.878 205.578 294.929 207.594 295.423 210.985L300.088 238.849L299.267 245.771L290.746 267.376C293.4 266.41 296.241 266.071 299.048 266.385C301.697 266.702 303.981 268.265 306.613 268.557C310.591 268.995 313.542 267.559 316.544 265.657C320.53 264.806 324.392 263.448 328.035 261.618H328.278C331.254 261.635 334.621 261.584 336.817 259.254C337.304 258.762 338.665 256.827 338.102 256.018Z" fill="#026D58"/>
<path d="M291.961 248.887L292.039 215.046C292.862 205.773 297.471 204.292 297.471 204.292C306.781 203.199 305.344 220.453 305.344 220.453L301.449 249.613" fill="#886962"/>
<path d="M262.324 267.393C266.594 265.107 266.977 264.369 267.729 263.296C270.977 258.67 264.413 258.828 262.762 259.203C261.813 259.42 261.754 261.674 258.813 264.425C258.813 264.425 254.187 267.104 253.053 266.918C253.053 266.918 251.867 267.089 251.867 267.941C251.867 267.941 255.113 269.869 262.324 267.393Z" fill="#886962"/>
<path d="M292.676 245.321L263.685 261.187C262.431 264.676 264.042 265.178 264.042 265.178L286.487 258.721C296.068 256.155 299.878 252.133 299.878 252.133C299.878 252.133 304.068 249.231 298.721 244.907C298.697 244.907 296.262 242.981 292.676 245.321Z" fill="#886962"/>
<path d="M301.994 178.848C302.746 184.462 301.899 191.89 304.697 198.028C305.941 200.757 307.314 202.111 306.569 205.281C305.958 207.874 304.731 210.32 304.066 213.006C302.605 218.932 304.594 224.721 311.501 222.576C314.812 221.547 315.182 221.564 318.199 222.732C320.731 223.706 323.112 223.989 325.63 222.764C329.525 220.86 328.359 217.987 330.547 215.107C332.213 212.916 334.569 212.969 335.826 210.021C337.343 206.462 335.536 204.563 333.691 201.544C331.767 198.398 331.458 196.329 332.091 192.535C332.624 189.349 331.835 187.739 330.781 184.808C329.7 181.806 330.173 179.191 329.659 176.182C328.646 170.229 325.393 162.151 319.158 160.406C316.103 159.551 312.154 158.881 309.213 159.96C305.208 161.421 300.75 162.994 300.923 167.919C301.101 172.985 301.327 173.847 301.994 178.848Z" fill="#340E08"/>
<path d="M263.538 259.086C263.538 259.086 264.351 261.462 261.393 260.88L258.496 258.675C258.496 258.675 257.597 258.188 257.916 257.333C257.916 257.333 258.262 256.846 259.187 257.333L263.538 259.086Z" fill="#886962"/>
<defs>
<linearGradient id="paint0_linear_10471_83768" x1="312.113" y1="74.002" x2="326.595" y2="114.475" gradientUnits="userSpaceOnUse">
<stop stop-color="#FCB148"/>
<stop offset="0.0520724" stop-color="#FDBA46"/>
<stop offset="0.1424" stop-color="#FFC244"/>
<stop offset="0.3183" stop-color="#FFC444"/>
<stop offset="0.4849" stop-color="#FDB946"/>
<stop offset="0.7754" stop-color="#F99C4D"/>
<stop offset="0.8658" stop-color="#F8924F"/>
<stop offset="1" stop-color="#F8924F"/>
</linearGradient>
<linearGradient id="paint1_linear_10471_83768" x1="340.272" y1="78.6036" x2="358.319" y2="136.021" gradientUnits="userSpaceOnUse">
<stop stop-color="#FCB148"/>
<stop offset="0.0520724" stop-color="#FDBA46"/>
<stop offset="0.1424" stop-color="#FFC244"/>
<stop offset="0.3183" stop-color="#FFC444"/>
<stop offset="0.4849" stop-color="#FDB946"/>
<stop offset="0.7754" stop-color="#F99C4D"/>
<stop offset="0.8658" stop-color="#F8924F"/>
<stop offset="1" stop-color="#F8924F"/>
</linearGradient>
<linearGradient id="paint2_linear_10471_83768" x1="341.222" y1="119.452" x2="351.265" y2="160.497" gradientUnits="userSpaceOnUse">
<stop stop-color="#FCB148"/>
<stop offset="0.0520724" stop-color="#FDBA46"/>
<stop offset="0.1424" stop-color="#FFC244"/>
<stop offset="0.3183" stop-color="#FFC444"/>
<stop offset="0.4849" stop-color="#FDB946"/>
<stop offset="0.7754" stop-color="#F99C4D"/>
<stop offset="0.8658" stop-color="#F8924F"/>
<stop offset="1" stop-color="#F8924F"/>
</linearGradient>
<linearGradient id="paint3_linear_10471_83768" x1="358.412" y1="78.5126" x2="371.605" y2="113.759" gradientUnits="userSpaceOnUse">
<stop stop-color="#FCB148"/>
<stop offset="0.0520724" stop-color="#FDBA46"/>
<stop offset="0.1424" stop-color="#FFC244"/>
<stop offset="0.3183" stop-color="#FFC444"/>
<stop offset="0.4849" stop-color="#FDB946"/>
<stop offset="0.7754" stop-color="#F99C4D"/>
<stop offset="0.8658" stop-color="#F8924F"/>
<stop offset="1" stop-color="#F8924F"/>
</linearGradient>
</defs>
</svg>
