<svg width="81" height="26" viewBox="0 0 81 26" fill="none" xmlns="http://www.w3.org/2000/svg">
<g clip-path="url(#clip0_9930_119323)">
<path d="M33.8748 24.1949C33.1423 24.7228 32.3199 25.1345 31.4411 25.4132C30.5369 25.6999 29.587 25.8443 28.6309 25.8402C27.4831 25.8478 26.3458 25.6379 25.2893 25.2234C23.234 24.4224 21.5984 22.9121 20.7309 21.0142C20.2897 20.0364 20.0625 18.9877 20.0625 17.9284C20.0625 16.8691 20.2897 15.8204 20.7309 14.8426C21.5982 12.9447 23.2339 11.4345 25.2893 10.6338C26.3481 10.2264 27.4839 10.0166 28.6309 10.0166C29.778 10.0166 30.9137 10.2264 31.9725 10.6338C34.028 11.4345 35.6636 12.9447 36.531 14.8426C36.9798 15.8183 37.2073 16.8686 37.1994 17.9286C37.1999 18.2567 37.177 18.5844 37.1309 18.9096C37.0846 19.226 37.0274 19.5313 36.9594 19.8256H24.9979C25.359 20.4125 25.8784 20.9032 26.5057 21.2498C27.146 21.6087 27.8824 21.7951 28.6314 21.7876C29.5056 21.7928 30.3585 21.5383 31.0641 21.0618L33.8748 24.1949ZM28.6314 14.0675C27.9342 14.0588 27.2472 14.2227 26.6418 14.5421C26.0587 14.8491 25.5556 15.2705 25.1679 15.7765H32.0925C31.7045 15.2708 31.2015 14.8495 30.6187 14.5421C30.0137 14.2232 29.3275 14.0593 28.6309 14.0675H28.6314Z" fill="#3A3A3A"/>
<path d="M43.3003 11.0293C43.9282 10.7093 44.5956 10.4603 45.288 10.2878C46.0027 10.1076 46.7404 10.0171 47.4813 10.0187C48.6293 10.0111 49.7668 10.2212 50.8233 10.6359C52.8788 11.4364 54.5144 12.9466 55.3813 14.8446C55.8225 15.8224 56.0497 16.8712 56.0497 17.9305C56.0497 18.9897 55.8225 20.0385 55.3813 21.0163C54.5142 22.9143 52.8787 24.4246 50.8233 25.2255C49.7644 25.6328 48.6286 25.8424 47.4815 25.8424C46.3344 25.8424 45.1986 25.6328 44.1397 25.2255C42.0843 24.4244 40.4488 22.9142 39.5812 21.0163C39.1325 20.0407 38.9051 18.9906 38.9133 17.9307V5.90234H43.3003V11.0293ZM47.4813 21.7892C48.0378 21.8001 48.591 21.7084 49.1085 21.5193C49.6261 21.3302 50.0976 21.0476 50.4953 20.688C50.8931 20.3285 51.2091 19.8992 51.4248 19.4255C51.6405 18.9517 51.7516 18.4429 51.7516 17.9289C51.7516 17.415 51.6405 16.9062 51.4248 16.4324C51.2091 15.9586 50.8931 15.5294 50.4953 15.1698C50.0976 14.8103 49.6261 14.5277 49.1085 14.3386C48.591 14.1495 48.0378 14.0577 47.4813 14.0687C46.9277 14.0655 46.3793 14.1678 45.8705 14.3692C45.3842 14.5601 44.9377 14.8279 44.5511 15.1604C44.1715 15.4913 43.8683 15.8897 43.6597 16.3316C43.4422 16.786 43.3202 17.2745 43.3003 17.771V17.9294C43.2985 18.4368 43.4055 18.9396 43.615 19.4087C43.8245 19.8778 44.1324 20.3041 44.521 20.6629C44.9095 21.0217 45.3712 21.306 45.8792 21.4995C46.3873 21.6929 46.9317 21.7917 47.4813 21.7901V21.7892Z" fill="#3A3A3A"/>
<path d="M62.1497 25.8401H57.7627V5.90234H62.1497V25.8401Z" fill="#3A3A3A"/>
<path d="M77.6753 24.1951C76.943 24.723 76.1207 25.1347 75.2421 25.4134C74.3377 25.7001 73.3876 25.8445 72.4314 25.8404C71.2836 25.8479 70.1463 25.638 69.0898 25.2236C67.0345 24.4226 65.3989 22.9123 64.5314 21.0144C64.0903 20.0366 63.8633 18.9878 63.8633 17.9286C63.8633 16.8694 64.0903 15.8206 64.5314 14.8428C65.3987 12.9449 67.0344 11.4347 69.0898 10.634C70.1487 10.2266 71.2844 10.0168 72.4314 10.0168C73.5785 10.0168 74.7142 10.2266 75.773 10.634C77.8287 11.4344 79.4645 12.9447 80.3315 14.8428C80.7806 15.8184 81.0081 16.8688 80.9999 17.9288C81.0004 18.2569 80.9775 18.5846 80.9314 18.9098C80.8854 19.2262 80.8283 19.5315 80.7599 19.8258H68.7984C69.1597 20.4127 69.6793 20.9034 70.3067 21.25C70.947 21.609 71.6833 21.7953 72.4324 21.7878C73.3066 21.7928 74.1594 21.5384 74.8651 21.062L77.6753 24.1951ZM72.4319 14.0677C71.7354 14.0594 71.0491 14.2233 70.4442 14.5423C69.8612 14.8494 69.3581 15.2708 68.9703 15.7767H75.8935C75.5057 15.271 75.0028 14.8497 74.4201 14.5423C73.8149 14.2233 73.1283 14.0594 72.4314 14.0677H72.4319Z" fill="#3A3A3A"/>
<path d="M0.244783 3.5419C0.51451 3.05904 0.984526 2.78992 1.17395 2.68436C1.37493 2.57098 1.59105 2.48227 1.81686 2.42046C2.2596 2.29755 2.73172 2.29755 3.17447 2.42046C3.7177 2.57662 4.03845 2.88195 4.24629 3.07998C4.48768 3.30898 4.7711 3.57898 4.88967 4.00383C4.94919 4.21625 4.95297 4.49716 4.961 5.0594C4.96431 5.28317 4.961 5.44848 4.961 5.45546C4.95297 5.89732 4.95155 10.8864 4.961 23.3366C4.98852 23.5336 4.98852 23.7332 4.961 23.9302C4.93372 24.1104 4.88622 24.2874 4.81929 24.4584C4.66529 24.8288 4.26613 25.3531 3.60433 25.6458C2.49047 26.1386 1.41581 25.6287 1.31755 25.5799C1.24575 25.5441 0.0855915 24.9692 0.031268 24.0624C0.0289141 24.0188 0.0289141 23.9751 0.031268 23.9315C-0.00935644 13.0783 -0.00888406 5.13181 0.031268 4.33489C0.0384604 4.05929 0.111362 3.78853 0.244783 3.5419V3.5419Z" fill="url(#paint0_linear_9930_119323)"/>
<path d="M4.88987 4.12066C4.77083 3.66616 4.48741 3.3774 4.24649 3.13444C4.03865 2.92246 3.7179 2.59575 3.17467 2.42869C2.73333 2.29721 2.25839 2.29721 1.81706 2.42869C1.58958 2.49504 1.37309 2.59 1.17368 2.7109C0.984727 2.82388 0.51235 3.11176 0.244512 3.6269C0.110558 3.89244 0.0375417 4.18069 0.0300524 4.47354C-0.00679303 5.26435 -0.0100996 12.6085 0.0220221 22.9077C0.244512 19.6498 1.382 16.6667 3.03201 13.7914C4.23374 11.6977 4.94609 7.52729 4.92436 4.39764C4.90191 4.30766 4.8905 4.21562 4.89035 4.12328L4.88987 4.12066Z" fill="#999999"/>
<path d="M4.8894 4.00383C4.77083 3.57898 4.48741 3.30898 4.24602 3.07998C4.03818 2.88195 3.71743 2.57662 3.1742 2.42046C2.73145 2.29755 2.25933 2.29755 1.81658 2.42046C1.59078 2.48227 1.37466 2.57098 1.17368 2.68436C0.984727 2.78992 0.51235 3.05904 0.244512 3.5419C0.110965 3.78807 0.0377459 4.05836 0.0300524 4.33359C-0.00679303 5.07249 -0.0100996 11.9377 0.0220221 21.563C0.244512 18.5176 1.382 15.729 3.03154 13.0412C4.23327 11.0827 4.94561 7.18582 4.92388 4.26031C4.90128 4.17641 4.88985 4.09028 4.88987 4.00383H4.8894Z" fill="url(#paint1_linear_9930_119323)"/>
<path d="M13.1494 5.65998C13.9336 4.93155 14.7928 4.27421 15.5789 3.5484C15.7247 3.39581 15.8927 3.26266 16.0782 3.15277C16.2991 3.02898 16.5405 2.93967 16.7929 2.88844C17.1196 2.81317 17.458 2.79088 17.7929 2.82258C18.1717 2.86089 18.5373 2.97346 18.8652 3.15277C19.1116 3.29223 19.3293 3.47092 19.5081 3.68056C19.6601 3.85995 19.7806 4.06028 19.8652 4.27421C20.0171 4.67741 20.042 5.11209 19.937 5.52782C19.7693 6.23532 19.2544 6.68982 19.0792 6.84772C18.1533 7.68215 15.2921 10.1466 11.5764 13.7757C11.5292 13.8237 11.3265 13.941 11.2193 14.1713C11.1489 14.316 11.124 14.4761 11.1475 14.6333C11.1995 14.9216 11.4555 15.0926 11.5051 15.1615C11.7909 15.5571 13.7914 17.3385 16.5071 19.7798C17.7003 20.8533 18.3395 21.4993 18.7934 21.8256C19.0359 21.9957 19.2524 22.1954 19.4368 22.4192C19.6158 22.6373 19.9092 23.0011 20.0084 23.5411C20.0905 24.0123 20.0157 24.4954 19.7939 24.9264C19.6966 25.1218 19.425 25.6488 18.7934 25.9824C17.7343 26.5416 16.5813 26.0697 16.364 25.9824C16.0476 25.8531 15.7576 25.6746 15.5066 25.4546C14.5992 24.6599 11.703 22.0088 7.78937 18.3945C7.64766 18.2636 7.54657 18.0996 7.36045 17.8667C7.03782 17.4619 6.80635 17.1069 6.64622 16.7448C6.49742 16.409 6.32736 16.0251 6.2173 15.4912C6.10925 14.9694 6.08521 14.4357 6.14597 13.9074C6.28202 12.7589 6.79974 11.9516 7.07466 11.5324C7.32274 11.1556 7.60988 10.8019 7.93203 10.4764C9.7384 8.62476 11.3072 7.36897 13.1494 5.65998Z" fill="url(#paint2_linear_9930_119323)"/>
<path d="M18.8801 6.63699C19.0526 6.4769 19.5599 6.01585 19.7248 5.29789C19.8286 4.87587 19.8043 4.43557 19.6544 4.02552C19.4743 3.55433 19.127 3.15316 18.669 2.88707C18.3476 2.70592 17.9873 2.59174 17.6132 2.55252C17.5154 2.54161 17.1659 2.53943 16.6751 2.65458C16.5112 2.69297 16.3444 2.74182 16.061 2.9163C15.8577 3.04502 15.6679 3.19105 15.4941 3.35249C14.7199 4.08921 13.8106 4.69289 13.0378 5.4318C11.2248 7.16608 9.6787 8.4415 7.89925 10.3202C7.58091 10.6512 7.29805 11.01 7.05464 11.3914C6.78539 11.8141 6.38859 12.7039 6.13965 13.8023C6.77783 10.9875 11.2834 10.7703 13.0992 10.1226C13.128 10.1117 13.1577 10.1029 13.188 10.0964C14.9287 9.77711 16.4413 8.84279 17.7923 7.63237C18.2774 7.19836 18.617 6.88169 18.8801 6.63699Z" fill="#999999"/>
<path d="M19.109 6.57709C19.2843 6.41919 19.7992 5.96643 19.9669 5.25719C20.0718 4.84146 20.0469 4.40678 19.8951 4.00358C19.8104 3.78965 19.6899 3.58932 19.538 3.40993C19.3591 3.20029 19.1415 3.0216 18.8951 2.88214C18.5672 2.70283 18.2016 2.59026 17.8228 2.55195C17.4878 2.52025 17.1494 2.54254 16.8227 2.61781C16.5704 2.66904 16.3289 2.75835 16.108 2.88214C15.9222 2.99197 15.7539 3.12512 15.6078 3.27777C14.8217 4.00358 13.9625 4.66092 13.1793 5.38935C11.337 7.09834 9.76919 8.35544 7.96282 10.2057C7.64067 10.5313 7.35353 10.8849 7.10545 11.2618C6.63012 11.9895 6.31456 12.7965 6.17676 13.6368C6.6052 10.8657 11.3928 10.4038 13.2506 9.81012C15.0371 9.41406 16.5573 8.6093 18.006 7.55765C18.5375 7.17075 18.8417 6.81787 19.109 6.57709Z" fill="url(#paint3_linear_9930_119323)"/>
<path d="M19.252 21.9505C19.6447 22.3124 19.9175 22.7703 20.038 23.2704C20.0786 23.4419 20.1197 23.9356 19.8963 24.5096C19.8117 24.7237 19.6912 24.9242 19.5392 25.1037C19.3596 25.3133 19.1415 25.4919 18.8948 25.6315C18.8131 25.6778 18.4659 25.9094 17.8225 25.9613C17.4876 25.9918 17.1494 25.9695 16.8225 25.8954C16.6558 25.8575 16.3945 25.7441 16.1078 25.5796C15.9286 25.4812 15.761 25.3659 15.6076 25.2355C14.8215 24.5096 14.0336 23.8667 13.2494 23.1383C11.4095 21.4293 9.96265 20.1691 7.96166 18.3075C7.78499 18.1426 7.47463 17.7679 7.10429 17.2519C6.8544 16.903 6.35415 15.9791 6.18457 14.8577C6.59696 17.5869 11.4856 17.8198 13.206 18.393C13.2589 18.411 13.3128 18.4264 13.3675 18.4392C15.1243 18.8449 16.8055 19.7591 18.0049 20.956C18.465 21.4149 18.9846 21.7097 19.252 21.9505Z" fill="#999999"/>
<path d="M19.252 21.9505C19.6447 22.3124 19.9175 22.7703 20.038 23.2704C20.0786 23.4419 20.1197 23.9356 19.8963 24.5096C19.8117 24.7237 19.6912 24.9242 19.5392 25.1037C19.3596 25.3133 19.1415 25.4919 18.8948 25.6315C18.8131 25.6778 18.4659 25.9094 17.8225 25.9613C17.4876 25.9918 17.1494 25.9695 16.8225 25.8954C16.6558 25.8575 16.3945 25.7441 16.1078 25.5796C15.9286 25.4812 15.761 25.3659 15.6076 25.2355C14.8215 24.5096 14.0336 23.8667 13.2494 23.1383C11.4095 21.4293 9.96265 20.1691 7.96166 18.3075C7.78499 18.1426 7.47463 17.7679 7.10429 17.2519C6.8544 16.903 6.35415 15.9791 6.18457 14.8577C6.6031 17.6301 11.3916 18.1095 13.2494 18.7035C15.036 19.0992 16.5561 19.9044 18.0049 20.956C18.5372 21.3425 18.9846 21.7097 19.252 21.9505Z" fill="url(#paint4_linear_9930_119323)"/>
<path d="M4.95506 13.254C4.7236 15.1213 4.06227 16.9921 2.12552 18.0521C0.668707 18.8494 0.613911 22.0214 0.02958 23.6789C0.02958 23.7142 0.033359 23.7622 0.02958 23.8193C0.02958 23.8529 0.0267457 23.9013 0.02958 23.9589C0.0839034 24.9185 1.24406 25.5248 1.31586 25.5623C1.41412 25.6138 2.48878 26.1525 3.60264 25.6321C4.1592 25.3646 4.59125 24.9192 4.81807 24.379C4.88509 24.1978 4.93256 24.0109 4.95978 23.8211C4.98731 23.6128 4.98731 23.4022 4.95978 23.1938C4.95978 19.1735 4.95601 15.8894 4.95506 13.254Z" fill="#999999"/>
<path d="M4.95557 13.9297C4.7241 15.6971 4.29896 17.0929 2.36221 18.0962C0.905401 18.8508 0.800533 22.2543 0.0300858 23.7976C0.0300858 23.8312 0.0338648 23.877 0.0300858 23.9284C0.0277318 23.972 0.0277318 24.0157 0.0300858 24.0593C0.0844092 24.9657 1.24457 25.5423 1.31637 25.5768C1.41462 25.6256 2.48928 26.1355 3.60315 25.6426C4.26448 25.35 4.66411 24.8257 4.8181 24.4553C4.88504 24.2843 4.93253 24.1073 4.95982 23.9271C4.98734 23.73 4.98734 23.5305 4.95982 23.3335C4.96029 19.5321 4.95651 16.4242 4.95557 13.9297Z" fill="url(#paint5_linear_9930_119323)"/>
<path d="M78.4977 3.95137C78.9578 4.38756 79.3711 4.86737 79.8293 5.30356C79.9258 5.38525 80.0096 5.47891 80.0783 5.58184C80.1555 5.7035 80.2102 5.83617 80.2403 5.97441C80.2854 6.15437 80.2962 6.34018 80.2724 6.52358C80.2439 6.73074 80.1677 6.92987 80.049 7.10763C79.9569 7.24197 79.8396 7.36013 79.7028 7.45658C79.5857 7.53791 79.4557 7.60192 79.3173 7.64632C79.0566 7.72516 78.7769 7.73409 78.5109 7.67206C78.0579 7.57261 77.7712 7.2856 77.6715 7.18789C77.1448 6.67188 75.5931 5.07761 73.2978 3.00266C73.2675 2.97518 73.1939 2.86395 73.0474 2.80245C72.955 2.76274 72.8524 2.74763 72.7512 2.75883C72.5651 2.78457 72.4527 2.92284 72.4078 2.94945C72.1504 3.10168 70.9841 4.1795 69.3846 5.6416C68.6822 6.28454 68.2603 6.62782 68.0459 6.8734C67.9338 7.00436 67.803 7.12071 67.6571 7.2193C67.4461 7.37456 67.196 7.47822 66.9301 7.5207C66.6266 7.56129 66.3168 7.51565 66.042 7.38985C65.7623 7.27248 65.5297 7.07665 65.3774 6.83022C65.0288 6.24354 65.3439 5.61674 65.4029 5.49853C65.4894 5.32662 65.6072 5.16965 65.7511 5.03443C66.2707 4.54502 68.0067 2.98434 70.3709 0.879294C70.4574 0.802524 70.5632 0.748437 70.7148 0.649858C70.9397 0.4961 71.1844 0.368636 71.4432 0.270374C71.704 0.169717 71.9758 0.0954224 72.2538 0.0487903C72.5903 -0.00481079 72.9334 -0.0124531 73.2723 0.0261084C74.0092 0.113346 74.5231 0.405157 74.7895 0.56044C75.0288 0.700141 75.253 0.86082 75.4589 1.04025C76.628 2.05133 77.4188 2.92502 78.4977 3.95137Z" fill="url(#paint6_linear_9930_119323)"/>
<path d="M77.6893 6.99341C77.7918 7.0885 78.0875 7.36722 78.549 7.45838C78.82 7.51585 79.1029 7.50317 79.3667 7.42174C79.506 7.37646 79.637 7.31158 79.755 7.22938C79.8913 7.13368 80.0082 7.01642 80.1003 6.88305C80.2172 6.70713 80.291 6.50972 80.3166 6.30467C80.3381 6.12382 80.324 5.94089 80.275 5.76466C80.2418 5.62792 80.184 5.49728 80.104 5.3782C80.032 5.27748 79.9452 5.18647 79.8461 5.10777C79.3737 4.68248 78.9486 4.2175 78.472 3.79309C77.3595 2.79684 76.5423 1.94758 75.3368 0.969647C75.1243 0.794728 74.8939 0.63916 74.649 0.505106C74.3779 0.356802 73.8063 0.138272 73.1006 0C74.9093 0.353749 75.0425 2.82388 75.4563 3.82014C75.4635 3.83591 75.469 3.85227 75.4729 3.86899C75.676 4.82337 76.2759 5.65387 77.0506 6.39626C77.3284 6.66234 77.5324 6.84903 77.6893 6.99341Z" fill="#0E664F"/>
<path d="M77.7277 7.12101C77.8288 7.21697 78.1202 7.50005 78.5747 7.59253C78.8417 7.65096 79.1212 7.6381 79.3805 7.55545C79.5183 7.50921 79.6474 7.44343 79.7632 7.36047C79.8982 7.26261 80.0133 7.14344 80.1033 7.00847C80.2189 6.82904 80.2917 6.62887 80.3168 6.42136C80.3377 6.23778 80.3238 6.05224 80.2757 5.87307C80.2184 5.61384 80.07 5.37936 79.8534 5.20614C79.3876 4.77431 78.9663 4.30236 78.4996 3.8714C77.4032 2.86032 76.5982 1.99841 75.4102 1.00565C75.2016 0.828452 74.9747 0.670527 74.7328 0.534128C74.2656 0.272467 73.7471 0.0983145 73.207 0.0216064C74.9879 0.260201 75.2779 2.88518 75.6573 3.90368C75.909 4.88336 76.4244 5.71866 77.0985 6.5134C77.3465 6.80651 77.5732 6.97445 77.7277 7.12101Z" fill="url(#paint7_linear_9930_119323)"/>
<path d="M67.843 7.17736C67.6099 7.39263 67.3148 7.54159 66.9927 7.60657C66.7242 7.64348 66.4499 7.61584 66.1963 7.52631C66.0588 7.4797 65.9301 7.4133 65.8151 7.32959C65.6803 7.23135 65.5657 7.1117 65.4764 6.97628C65.3522 6.80045 65.2796 6.59784 65.2657 6.3883C65.2469 6.20455 65.2617 6.01919 65.3096 5.84001C65.3575 5.701 65.4262 5.56886 65.5137 5.44744C65.5772 5.34937 65.6516 5.2577 65.7357 5.17395C66.2034 4.74387 66.6177 4.31291 67.0872 3.88414C68.1883 2.87785 69.0003 2.08661 70.2002 0.992648C70.3065 0.895814 70.5479 0.726137 70.8799 0.524182C71.1048 0.387219 71.699 0.114601 72.4204 0.0234375C70.6655 0.245457 70.5086 2.92453 70.1378 3.86669C70.1263 3.89529 70.1164 3.92441 70.1081 3.95393C69.8389 4.92583 69.2758 5.80694 68.4845 6.49429C68.1888 6.74684 67.9984 7.03124 67.843 7.17736Z" fill="#0E664F"/>
<path d="M67.843 7.17736C67.6099 7.39263 67.3148 7.54159 66.9927 7.60657C66.7242 7.64348 66.4499 7.61584 66.1963 7.52631C66.0588 7.4797 65.9301 7.4133 65.8151 7.32959C65.6803 7.23135 65.5657 7.1117 65.4764 6.97628C65.3522 6.80045 65.2796 6.59784 65.2657 6.3883C65.2469 6.20455 65.2617 6.01919 65.3096 5.84001C65.3575 5.701 65.4262 5.56886 65.5137 5.44744C65.5772 5.34937 65.6516 5.2577 65.7357 5.17395C66.2034 4.74387 66.6177 4.31291 67.0872 3.88414C68.1883 2.87785 69.0003 2.08661 70.2002 0.992648C70.3065 0.895814 70.5479 0.726137 70.8799 0.524182C71.1048 0.387219 71.699 0.114601 72.4204 0.0234375C70.6376 0.248947 70.3225 2.87306 69.9385 3.89025C69.6815 4.86905 69.1619 5.70217 68.4836 6.49385C68.2826 6.73146 68.0688 6.95958 67.843 7.17736V7.17736Z" fill="url(#paint8_linear_9930_119323)"/>
<path d="M77.7349 6.99671C77.8326 7.09092 78.1151 7.3679 78.5559 7.45907C78.8146 7.5161 79.0856 7.50339 79.3367 7.42243C79.4703 7.37703 79.5953 7.3124 79.707 7.23094C79.8385 7.13512 79.9505 7.01843 80.0377 6.88635C80.1499 6.71023 80.2204 6.51414 80.2446 6.31102C80.2647 6.13111 80.2513 5.94935 80.2049 5.77363C80.1736 5.63814 80.1184 5.50832 80.0415 5.38935C79.9734 5.28962 79.8908 5.19906 79.7958 5.12022C79.3447 4.69712 78.9361 4.23476 78.4836 3.81166C77.4217 2.82107 76.6413 1.97618 75.4901 1.00348C75.2884 0.829989 75.0686 0.675268 74.834 0.541552C74.382 0.285444 73.8794 0.114653 73.3555 0.0390625C75.0811 0.273296 75.3621 2.8455 75.7296 3.84394C75.9738 4.80355 76.4731 5.62271 77.1264 6.40131C77.3655 6.68876 77.5851 6.85276 77.7349 6.99671Z" fill="url(#paint9_linear_9930_119323)"/>
<path d="M67.7248 7.11418C67.5031 7.32114 67.2218 7.46509 66.9142 7.529C66.6579 7.5647 66.3959 7.53793 66.1542 7.45135C66.0227 7.40632 65.8999 7.34211 65.7904 7.26118C65.6616 7.16593 65.5522 7.05028 65.4673 6.91964C65.3488 6.74967 65.2797 6.55439 65.2666 6.3526C65.2483 6.17504 65.2623 5.9959 65.3081 5.82263C65.3541 5.68884 65.4196 5.56147 65.5028 5.44401C65.5633 5.34934 65.6344 5.26075 65.7149 5.17968C66.1608 4.764 66.5566 4.34744 67.0044 3.93262C68.055 2.95992 68.8302 2.19484 69.9748 1.13665C70.0758 1.04331 70.2974 0.918556 70.5955 0.700462C70.808 0.544307 71.4457 0.193175 72.082 0.0771484C70.3971 0.382481 70.0914 2.95599 69.7244 3.93873C69.4792 4.88482 68.9837 5.69003 68.3366 6.45597C68.0985 6.73601 67.8727 6.97242 67.7248 7.11418Z" fill="url(#paint10_linear_9930_119323)"/>
<path d="M72.9248 2.70205C73.2528 2.70205 73.5186 2.45657 73.5186 2.15376C73.5186 1.85095 73.2528 1.60547 72.9248 1.60547C72.5969 1.60547 72.3311 1.85095 72.3311 2.15376C72.3311 2.45657 72.5969 2.70205 72.9248 2.70205Z" fill="#0E664F"/>
<path d="M72.9252 2.62396C73.2065 2.62396 73.4344 2.41343 73.4344 2.15374C73.4344 1.89405 73.2065 1.68353 72.9252 1.68353C72.644 1.68353 72.416 1.89405 72.416 2.15374C72.416 2.41343 72.644 2.62396 72.9252 2.62396Z" fill="url(#paint11_linear_9930_119323)"/>
</g>
<defs>
<linearGradient id="paint0_linear_9930_119323" x1="9.11135e-05" y1="14.0933" x2="4.98178" y2="14.0933" gradientUnits="userSpaceOnUse">
<stop stop-color="#CCCCCC"/>
<stop offset="1" stop-color="#999999"/>
</linearGradient>
<linearGradient id="paint1_linear_9930_119323" x1="-0.000179699" y1="11.9464" x2="4.92436" y2="11.9464" gradientUnits="userSpaceOnUse">
<stop stop-color="#35977F"/>
<stop offset="0.07" stop-color="#278B74"/>
<stop offset="0.19" stop-color="#157D67"/>
<stop offset="0.33" stop-color="#09735D"/>
<stop offset="0.53" stop-color="#026D58"/>
<stop offset="1" stop-color="#006B56"/>
</linearGradient>
<linearGradient id="paint2_linear_9930_119323" x1="2402.34" y1="8232.68" x2="6509.29" y2="8232.68" gradientUnits="userSpaceOnUse">
<stop stop-color="#CCCCCC"/>
<stop offset="1" stop-color="#999999"/>
</linearGradient>
<linearGradient id="paint3_linear_9930_119323" x1="2399.3" y1="2328.41" x2="6462.79" y2="2328.41" gradientUnits="userSpaceOnUse">
<stop stop-color="#35977F"/>
<stop offset="0.07" stop-color="#278B74"/>
<stop offset="0.19" stop-color="#157D67"/>
<stop offset="0.33" stop-color="#09735D"/>
<stop offset="0.53" stop-color="#026D58"/>
<stop offset="1" stop-color="#006B56"/>
</linearGradient>
<linearGradient id="paint4_linear_9930_119323" x1="2407.4" y1="5486.57" x2="6489.02" y2="5486.57" gradientUnits="userSpaceOnUse">
<stop stop-color="#35977F"/>
<stop offset="0.07" stop-color="#278B74"/>
<stop offset="0.19" stop-color="#157D67"/>
<stop offset="0.33" stop-color="#09735D"/>
<stop offset="0.53" stop-color="#026D58"/>
<stop offset="1" stop-color="#006B56"/>
</linearGradient>
<linearGradient id="paint5_linear_9930_119323" x1="210.989" y1="5741.17" x2="730.27" y2="5741.17" gradientUnits="userSpaceOnUse">
<stop stop-color="#35977F"/>
<stop offset="0.07" stop-color="#278B74"/>
<stop offset="0.19" stop-color="#157D67"/>
<stop offset="0.33" stop-color="#09735D"/>
<stop offset="0.53" stop-color="#026D58"/>
<stop offset="1" stop-color="#006B56"/>
</linearGradient>
<linearGradient id="paint6_linear_9930_119323" x1="4905.85" y1="21102.6" x2="4865.81" y2="23538" gradientUnits="userSpaceOnUse">
<stop stop-color="#35977F"/>
<stop offset="0.07" stop-color="#278B74"/>
<stop offset="0.19" stop-color="#157D67"/>
<stop offset="0.33" stop-color="#09735D"/>
<stop offset="0.53" stop-color="#026D58"/>
<stop offset="1" stop-color="#006B56"/>
</linearGradient>
<linearGradient id="paint7_linear_9930_119323" x1="79.5676" y1="7.50215" x2="75.7571" y2="0.751695" gradientUnits="userSpaceOnUse">
<stop stop-color="#35EA7F"/>
<stop offset="1" stop-color="#35977F"/>
</linearGradient>
<linearGradient id="paint8_linear_9930_119323" x1="12144.5" y1="-3463.16" x2="11297.5" y2="-4443.42" gradientUnits="userSpaceOnUse">
<stop stop-color="#35EA7F"/>
<stop offset="1" stop-color="#35977F"/>
</linearGradient>
<linearGradient id="paint9_linear_9930_119323" x1="79.5278" y1="7.36425" x2="75.8077" y2="0.773967" gradientUnits="userSpaceOnUse">
<stop stop-color="#1AAA7F"/>
<stop offset="1" stop-color="#35977F"/>
</linearGradient>
<linearGradient id="paint10_linear_9930_119323" x1="11559.5" y1="-3402.06" x2="10750.9" y2="-4309.26" gradientUnits="userSpaceOnUse">
<stop stop-color="#1AAA7F"/>
<stop offset="1" stop-color="#35977F"/>
</linearGradient>
<linearGradient id="paint11_linear_9930_119323" x1="666.945" y1="1485.08" x2="679.922" y2="1473.69" gradientUnits="userSpaceOnUse">
<stop stop-color="#1AAA7F"/>
<stop offset="1" stop-color="#35977F"/>
</linearGradient>
<clipPath id="clip0_9930_119323">
<rect width="81" height="25.9811" fill="white"/>
</clipPath>
</defs>
</svg>
