<svg width="98" height="66" viewBox="0 0 98 66" fill="none" xmlns="http://www.w3.org/2000/svg">
<g clip-path="url(#clip0_10390_83826)">
<path d="M84.1801 0.698975H13.1168C7.04031 0.698975 4.00204 0.698975 2.1143 2.58671C0.226562 4.47445 0.226562 7.51272 0.226562 13.5893V52.2599C0.226562 58.3365 0.226562 61.3747 2.1143 63.2625C4.00204 65.1502 7.04031 65.1502 13.1169 65.1502H84.1801C90.2566 65.1502 93.2949 65.1502 95.1826 63.2625C97.0704 61.3747 97.0704 58.3365 97.0704 52.2599V13.5893C97.0704 7.51272 97.0704 4.47445 95.1826 2.58671C93.2949 0.698975 90.2566 0.698975 84.1801 0.698975Z" fill="#2A8E76"/>
<path style="mix-blend-mode:screen" opacity="0.13" d="M32.9318 57.0939C48.0885 57.0939 60.3753 44.807 60.3753 29.6503C60.3753 14.4937 48.0885 2.20679 32.9318 2.20679C17.7752 2.20679 5.48828 14.4937 5.48828 29.6503C5.48828 44.807 17.7752 57.0939 32.9318 57.0939Z" fill="url(#paint0_radial_10390_83826)"/>
<path opacity="0.17" d="M64.2122 15.4374L64.1922 15.4132H37.6662L37.7263 15.4783H37.4833C36.7425 15.4783 36.032 15.7726 35.5081 16.2965C34.9842 16.8204 34.6899 17.5309 34.6899 18.2718V46.5076H32.3523L32.3323 46.5318C31.7743 47.2014 31.4688 48.0454 31.4688 48.917C31.4688 49.7886 31.7743 50.6326 32.3323 51.3022L32.3523 51.3264H58.9092C59.7156 51.3264 60.489 51.0061 61.0592 50.4358C61.6294 49.8656 61.9498 49.0922 61.9498 48.2858V20.2345H64.1922L64.2122 20.2112C64.7707 19.5412 65.0766 18.6965 65.0766 17.8243C65.0766 16.952 64.7707 16.1074 64.2122 15.4374V15.4374Z" fill="black"/>
<path opacity="0.12" d="M46.3467 61.5144C54.9865 61.5144 61.9904 60.6528 61.9904 59.59C61.9904 58.5272 54.9865 57.6656 46.3467 57.6656C37.707 57.6656 30.7031 58.5272 30.7031 59.59C30.7031 60.6528 37.707 61.5144 46.3467 61.5144Z" fill="black"/>
<path d="M36.7969 19.5415H63.3229L63.3429 19.5173C63.9009 18.8477 64.2064 18.0037 64.2064 17.1321C64.2064 16.2605 63.9009 15.4165 63.3429 14.7469L63.3229 14.7227H36.7969L36.9288 14.8637C37.5201 15.501 37.8396 16.3438 37.8193 17.213C37.799 18.0821 37.4406 18.909 36.8203 19.5181L36.7969 19.5415Z" fill="#F2F2F2"/>
<path d="M58.0396 50.6354H33.8203V17.5808C33.8202 17.214 33.8924 16.8509 34.0327 16.512C34.173 16.1731 34.3787 15.8652 34.638 15.6059C34.8973 15.3466 35.2052 15.1409 35.5441 15.0006C35.883 14.8602 36.2462 14.7881 36.6129 14.7882H60.3071C60.3071 14.7882 62.7666 14.6421 62.7165 14.7882C60.9917 14.8216 61.0802 19.607 61.0802 19.607V47.5949C61.08 48.4012 60.7595 49.1745 60.1894 49.7446C59.6192 50.3148 58.846 50.6352 58.0396 50.6354V50.6354Z" fill="white"/>
<path d="M58.0072 50.6351H31.4812L31.4612 50.6109C30.9032 49.9413 30.5977 49.0973 30.5977 48.2257C30.5977 47.3541 30.9032 46.5101 31.4612 45.8405L31.4812 45.8163H58.0072L57.8753 45.9574C56.6447 47.2823 56.436 49.5423 58.0072 50.6326V50.6351Z" fill="#F2F2F2"/>
<path d="M56.1933 20.1324H39.7148V21.5191H56.1933V20.1324Z" fill="#F7D77F"/>
<path d="M58.4848 43.6959H51.1172V44.1476H58.4848V43.6959Z" fill="#004686"/>
<path d="M58.4871 24.1249H37.4219V24.6884H58.4871V24.1249Z" fill="#E6E6E6"/>
<path d="M58.4871 26.8899H37.4219V27.4534H58.4871V26.8899Z" fill="#E6E6E6"/>
<path d="M58.4871 29.655H37.4219V30.2186H58.4871V29.655Z" fill="#E6E6E6"/>
<path d="M58.4871 32.4209H37.4219V32.9844H58.4871V32.4209Z" fill="#E6E6E6"/>
<path d="M58.4871 35.1859H37.4219V35.7494H58.4871V35.1859Z" fill="#E6E6E6"/>
<path d="M58.4871 40.7169H37.4219V41.2804H58.4871V40.7169Z" fill="#E6E6E6"/>
<path d="M58.4871 37.951H37.4219V38.5146H58.4871V37.951Z" fill="#E6E6E6"/>
<path opacity="0.28" d="M73.9653 22.2258L73.7232 22.0763L73.6581 22.0371L73.5412 21.9645L73.9194 21.35C73.9303 21.3313 73.9336 21.3091 73.9284 21.2881C73.9233 21.2671 73.9102 21.2488 73.8919 21.2373L71.8114 19.9583C71.7927 19.9474 71.7705 19.9441 71.7495 19.9493C71.7285 19.9544 71.7103 19.9675 71.6987 19.9858L71.3205 20.6003L71.1819 20.5168C71.1669 20.5078 71.149 20.505 71.132 20.5091C71.115 20.5131 71.1002 20.5237 71.0909 20.5385L70.929 20.8023C70.9244 20.8097 70.9213 20.818 70.9199 20.8265C70.9185 20.8351 70.9189 20.8439 70.9209 20.8523C70.9229 20.8608 70.9266 20.8688 70.9317 20.8758C70.9368 20.8828 70.9432 20.8888 70.9507 20.8933L71.0901 20.9768L67.83 26.2824C67.819 26.301 67.8156 26.3231 67.8206 26.3441C67.8256 26.3651 67.8385 26.3834 67.8567 26.3951L68.0462 26.5111L60.934 38.0831L60.7871 37.9921C60.7744 37.9843 60.7602 37.9791 60.7455 37.9768C60.7308 37.9745 60.7157 37.9751 60.7012 37.9786C60.6867 37.9821 60.6731 37.9884 60.661 37.9971C60.649 38.0059 60.6387 38.017 60.631 38.0297C60.6155 38.0552 60.6108 38.0857 60.6179 38.1147C60.6249 38.1436 60.6431 38.1686 60.6685 38.1841L60.8355 38.2843L60.7979 38.3678L60.6193 38.2676C60.6065 38.2598 60.5924 38.2546 60.5777 38.2523C60.563 38.25 60.5479 38.2506 60.5334 38.2541C60.5189 38.2576 60.5053 38.2639 60.4932 38.2726C60.4811 38.2814 60.4709 38.2925 60.4631 38.3052V38.3052C60.4476 38.3307 60.4428 38.3613 60.4496 38.3904C60.4565 38.4194 60.4746 38.4446 60.4999 38.4605L60.7003 38.5832L60.039 40.0609L59.3094 41.6905L58.9078 41.941L58.543 43.4905L58.7483 43.6107L60.0006 42.5847L60.0674 42.1489L61.2529 40.8056L62.3291 39.5875L62.5069 39.6969C62.5196 39.7047 62.5337 39.7099 62.5485 39.7122C62.5632 39.7145 62.5782 39.7139 62.5927 39.7104C62.6072 39.707 62.6209 39.7006 62.633 39.6919C62.645 39.6831 62.6552 39.672 62.663 39.6593V39.6593C62.6708 39.6467 62.676 39.6327 62.6784 39.6181C62.6808 39.6034 62.6803 39.5885 62.6769 39.5741C62.6734 39.5596 62.6672 39.546 62.6585 39.534C62.6499 39.522 62.6389 39.5118 62.6263 39.504L62.4818 39.4155L62.5436 39.3454L62.6739 39.4289C62.6994 39.4447 62.7302 39.4497 62.7595 39.4428C62.7888 39.4359 62.8141 39.4177 62.83 39.3922V39.3922C62.8455 39.3667 62.8504 39.3361 62.8435 39.307C62.8366 39.2779 62.8186 39.2527 62.7932 39.2369L62.6847 39.1701L69.4688 28.1316L69.7969 27.5981L69.9346 27.6816C69.9532 27.6926 69.9754 27.6959 69.9964 27.691C70.0174 27.686 70.0357 27.673 70.0473 27.6549L73.3033 22.3502L73.3642 22.3877C73.3716 22.3922 73.3781 22.3981 73.3832 22.405C73.3883 22.412 73.3919 22.4199 73.394 22.4283C73.396 22.4367 73.3963 22.4454 73.3949 22.4539C73.3936 22.4624 73.3905 22.4706 73.386 22.4779L71.2437 25.9643C71.2391 25.9716 71.2361 25.9798 71.2347 25.9883C71.2333 25.9968 71.2337 26.0055 71.2357 26.0139C71.2377 26.0223 71.2414 26.0302 71.2465 26.0372C71.2516 26.0441 71.258 26.05 71.2654 26.0544L71.5159 26.2089C71.5231 26.2135 71.5313 26.2166 71.5397 26.218C71.5482 26.2195 71.5569 26.2192 71.5653 26.2173C71.5737 26.2153 71.5816 26.2117 71.5886 26.2067C71.5956 26.2017 71.6015 26.1953 71.606 26.188L73.9795 22.3251C73.9861 22.3181 73.9911 22.3097 73.994 22.3005C73.9969 22.2913 73.9977 22.2816 73.9963 22.272C73.9949 22.2625 73.9915 22.2534 73.9861 22.2454C73.9807 22.2374 73.9736 22.2307 73.9653 22.2258V22.2258Z" fill="black"/>
<path d="M60.6745 40.4951L59.4531 39.7629L60.2863 37.8452L68.2175 24.6144L69.9824 25.6721L62.0571 38.8938L60.6745 40.4951Z" fill="#153E49"/>
<path d="M70.8924 19.5596L67.0928 25.8982C67.0696 25.937 67.0822 25.9872 67.121 26.0104L69.2162 27.2664C69.2549 27.2896 69.3052 27.277 69.3284 27.2383L73.128 20.8997C73.1512 20.8609 73.1386 20.8107 73.0999 20.7874L71.0047 19.5315C70.9659 19.5083 70.9157 19.5208 70.8924 19.5596Z" fill="#113542"/>
<path d="M72.9422 21.6293L72.8771 21.5901L70.3834 20.0957C70.376 20.0911 70.3678 20.0881 70.3592 20.0868C70.3507 20.0855 70.342 20.0859 70.3336 20.088C70.3252 20.0901 70.3173 20.0939 70.3104 20.099C70.3034 20.1042 70.2976 20.1107 70.2932 20.1182L70.1346 20.3837C70.1301 20.3911 70.1271 20.3993 70.1258 20.4078C70.1244 20.4164 70.1248 20.4251 70.1269 20.4335C70.129 20.4419 70.1328 20.4498 70.138 20.4567C70.1432 20.4636 70.1497 20.4695 70.1571 20.4738L72.5933 21.9348C72.6083 21.9437 72.6192 21.9582 72.6236 21.9751C72.628 21.992 72.6255 22.01 72.6166 22.025L70.5128 25.5314C70.5083 25.5388 70.5053 25.547 70.5039 25.5556C70.5026 25.5641 70.503 25.5728 70.5051 25.5812C70.5072 25.5896 70.511 25.5975 70.5162 25.6045C70.5214 25.6114 70.5279 25.6172 70.5353 25.6216L70.7858 25.7735C70.8007 25.7824 70.8186 25.7851 70.8355 25.7808C70.8524 25.7766 70.8669 25.7659 70.8759 25.751L73.2069 21.8622C73.2158 21.8473 73.2184 21.8294 73.2142 21.8125C73.21 21.7956 73.1992 21.7811 73.1843 21.7721L72.9422 21.6293Z" fill="#1A1A1A"/>
<path d="M59.5011 41.8522L58.7422 41.398L60.2867 37.8448L62.0516 38.9026L59.5011 41.8522Z" fill="#5D7A7F"/>
<path d="M59.5005 41.8525L58.7416 41.3983L58.3434 41.6546L57.9961 43.2083L58.1981 43.3293L59.4387 42.2891L59.5005 41.8525Z" fill="#DAE7E8"/>
<path d="M60.0241 37.7256L60.0232 37.7271C59.991 37.7809 60.0084 37.8506 60.0622 37.8828L62.0837 39.0946C62.1375 39.1268 62.2072 39.1093 62.2394 39.0556L62.2403 39.0541C62.2725 39.0003 62.2551 38.9306 62.2013 38.8984L60.1798 37.6866C60.1261 37.6544 60.0563 37.6719 60.0241 37.7256Z" fill="#688689"/>
<path d="M59.86 37.9999L59.8592 38.0014C59.8269 38.0552 59.8444 38.1249 59.8982 38.1571L61.9196 39.3689C61.9734 39.4011 62.0431 39.3836 62.0754 39.3299L62.0762 39.3284C62.1085 39.2746 62.091 39.2049 62.0372 39.1727L60.0158 37.9609C59.962 37.9287 59.8923 37.9462 59.86 37.9999Z" fill="#688689"/>
<path d="M58.8232 42.4103C58.8064 42.4389 58.7814 42.4619 58.7515 42.4763C58.7215 42.4907 58.688 42.4958 58.6551 42.4911C58.6222 42.4863 58.5915 42.4719 58.5669 42.4497C58.5422 42.4274 58.5248 42.3983 58.5167 42.3661C58.5087 42.3339 58.5104 42.3 58.5216 42.2687C58.5329 42.2375 58.5532 42.2103 58.58 42.1906C58.6068 42.171 58.6388 42.1597 58.672 42.1584C58.7052 42.157 58.738 42.1655 58.7663 42.1828C58.8037 42.2057 58.8307 42.2424 58.8413 42.2849C58.852 42.3275 58.8455 42.3725 58.8232 42.4103Z" fill="#153E49"/>
<path d="M58.6035 42.3697L58.0742 43.2526L58.143 43.2938L58.6722 42.4109L58.6035 42.3697Z" fill="#153E49"/>
<path opacity="0.28" d="M67.3125 26.1261L69.0766 27.1839L68.1014 28.8118L67.3125 26.1261Z" fill="black"/>
<path d="M42.0399 20.1324H39.7148V21.5191H42.0399V20.1324Z" fill="#8CAD81"/>
</g>
<defs>
<radialGradient id="paint0_radial_10390_83826" cx="0" cy="0" r="1" gradientUnits="userSpaceOnUse" gradientTransform="translate(32.9318 29.6503) scale(27.4435)">
<stop stop-color="white"/>
<stop offset="0.38" stop-color="#9A9A9A"/>
<stop offset="0.81" stop-color="#2C2C2C"/>
<stop offset="1"/>
</radialGradient>
<clipPath id="clip0_10390_83826">
<rect width="96.8438" height="64.4512" fill="white" transform="translate(0.226562 0.699097)"/>
</clipPath>
</defs>
</svg>
